<svg xmlns="http://www.w3.org/2000/svg" width="123.379" height="148.627" viewBox="0 0 123.379 148.627">
  <g id="Group_8505" data-name="Group 8505" transform="translate(-145 -169)">
    <g id="Group_8497" data-name="Group 8497" transform="translate(4903.319 -11719)">
      <path id="Path_17344" data-name="Path 17344" d="M102.152,88.717a1.988,1.988,0,0,1-1.988-1.988V84.074a1.988,1.988,0,1,1,3.976,0V86.73A1.988,1.988,0,0,1,102.152,88.717Zm0,0" transform="translate(-4851.18 11816.527)" fill="#ffe733"/>
      <path id="Path_17345" data-name="Path 17345" d="M102.152,172.9a1.988,1.988,0,0,1-1.988-1.988v-2.656a1.988,1.988,0,0,1,3.976,0v2.656A1.988,1.988,0,0,1,102.152,172.9Zm0,0" transform="translate(-4851.18 11743.231)" fill="#ffe733"/>
      <path id="Path_17346" data-name="Path 17346" d="M48.323,138.424H45.668a1.988,1.988,0,1,1,0-3.975h2.656a1.988,1.988,0,1,1,0,3.975Zm0,0" transform="translate(-4801.999 11770.935)" fill="#ffe733"/>
      <path id="Path_17347" data-name="Path 17347" d="M140.75,138.424h-2.656a1.988,1.988,0,1,1,0-3.975h2.656a1.988,1.988,0,1,1,0,3.975Zm0,0" transform="translate(-4882.475 11770.935)" fill="#ffe733"/>
      <g id="Group_8496" data-name="Group 8496" transform="translate(-4736.041 11888)">
        <path id="Path_17348" data-name="Path 17348" d="M274.457,6.632a1.988,1.988,0,0,1-1.988-1.988V1.988a1.988,1.988,0,0,1,3.976,0V4.644A1.988,1.988,0,0,1,274.457,6.632Zm0,0" transform="translate(-265.166)" fill="#ffbc36"/>
        <path id="Path_17349" data-name="Path 17349" d="M274.457,90.811a1.988,1.988,0,0,1-1.988-1.988V86.168a1.988,1.988,0,0,1,3.976,0v2.656A1.988,1.988,0,0,1,274.457,90.811Zm0,0" transform="translate(-265.166 -73.296)" fill="#ffbc36"/>
        <path id="Path_17350" data-name="Path 17350" d="M220.628,56.335h-2.656a1.988,1.988,0,1,1,0-3.976h2.656a1.988,1.988,0,1,1,0,3.976Zm0,0" transform="translate(-215.984 -45.589)" fill="#ffbc36"/>
        <path id="Path_17351" data-name="Path 17351" d="M313.054,56.335H310.4a1.988,1.988,0,1,1,0-3.976h2.656a1.988,1.988,0,1,1,0,3.976Zm0,0" transform="translate(-296.459 -45.589)" fill="#ffbc36"/>
        <path id="Path_17352" data-name="Path 17352" d="M402.207,316.854a1.988,1.988,0,0,1-1.988-1.988v-2.656a1.988,1.988,0,0,1,3.976,0v2.656A1.988,1.988,0,0,1,402.207,316.854Zm0,0" transform="translate(-310.398 -179.112)" fill="#ffbc36"/>
        <path id="Path_17353" data-name="Path 17353" d="M402.207,401.033a1.988,1.988,0,0,1-1.988-1.988V396.39a1.988,1.988,0,0,1,3.976,0v2.656A1.988,1.988,0,0,1,402.207,401.033Zm0,0" transform="translate(-310.398 -252.407)" fill="#ffbc36"/>
        <path id="Path_17354" data-name="Path 17354" d="M348.381,366.558h-2.656a1.988,1.988,0,0,1,0-3.976h2.656a1.988,1.988,0,1,1,0,3.976Zm0,0" transform="translate(-261.22 -224.701)" fill="#ffbc36"/>
        <path id="Path_17355" data-name="Path 17355" d="M440.807,366.558h-2.655a1.988,1.988,0,1,1,0-3.976h2.655a1.988,1.988,0,0,1,0,3.976Zm0,0" transform="translate(-341.695 -224.701)" fill="#ffbc36"/>
      </g>
    </g>
    <g id="booking_2_" data-name="booking (2)" transform="translate(160.788 201)">
      <path id="Path_17356" data-name="Path 17356" d="M162.646,3.06A3.06,3.06,0,0,0,159.586,0H92.06A3.06,3.06,0,0,0,89,3.06V85.07a3.06,3.06,0,0,0,3.06,3.06h67.526a3.06,3.06,0,0,0,3.06-3.06Zm0,0" transform="translate(-70.844)" fill="#c4e5ff"/>
      <path id="Path_17357" data-name="Path 17357" d="M312.644,0H281.285V88.13h31.359a3.06,3.06,0,0,0,3.06-3.06V3.06A3.06,3.06,0,0,0,312.644,0Zm0,0" transform="translate(-223.901)" fill="#9cc5e6"/>
      <path id="Path_17358" data-name="Path 17358" d="M73.646,83.06A3.06,3.06,0,0,0,70.586,80H3.06A3.06,3.06,0,0,0,0,83.06v82.01a3.06,3.06,0,0,0,3.06,3.06H70.586a3.06,3.06,0,0,0,3.06-3.06Zm0,0" transform="translate(0 -63.68)" fill="#ebf7ff"/>
      <path id="Path_17359" data-name="Path 17359" d="M214.077,80H180.266v88.13h33.811a3.06,3.06,0,0,0,3.06-3.06V83.06A3.06,3.06,0,0,0,214.077,80Zm0,0" transform="translate(-143.491 -63.68)" fill="#c4e5ff"/>
      <g id="Group_8504" data-name="Group 8504" transform="translate(12.86 34.681)">
        <path id="Path_17360" data-name="Path 17360" d="M66.1,176.12h41.71a3.06,3.06,0,1,0,0-6.12H66.1a3.06,3.06,0,1,0,0,6.12Zm0,0" transform="translate(-63.039 -170)" fill="#505f7d"/>
        <path id="Path_17361" data-name="Path 17361" d="M81.42,420H66.1a3.06,3.06,0,1,0,0,6.12H81.42a3.06,3.06,0,1,0,0-6.12Zm0,0" transform="translate(-63.039 -368.999)" fill="#505f7d"/>
        <path id="Path_17362" data-name="Path 17362" d="M66.1,239.12h41.71a3.06,3.06,0,1,0,0-6.12H66.1a3.06,3.06,0,1,0,0,6.12Zm0,0" transform="translate(-63.039 -220.148)" fill="#505f7d"/>
      </g>
      <path id="Path_17363" data-name="Path 17363" d="M201.307,233H180.5v6.12h20.807a3.06,3.06,0,1,0,0-6.12Zm0,0" transform="translate(-143.677 -185.467)" fill="#31394a"/>
      <path id="Path_17364" data-name="Path 17364" d="M66.1,302.12h41.71a3.06,3.06,0,1,0,0-6.12H66.1a3.06,3.06,0,1,0,0,6.12Zm0,0" transform="translate(-50.179 -235.615)" fill="#505f7d"/>
      <path id="Path_17365" data-name="Path 17365" d="M201.307,296H180.5v6.12h20.807a3.06,3.06,0,1,0,0-6.12Zm0,0" transform="translate(-143.677 -235.615)" fill="#31394a"/>
      <path id="Path_17366" data-name="Path 17366" d="M201.307,170H180.5v6.12h20.807a3.06,3.06,0,0,0,0-6.12Zm0,0" transform="translate(-143.677 -135.319)" fill="#31394a"/>
      <path id="Path_17367" data-name="Path 17367" d="M226.262,80.606A18.961,18.961,0,1,1,207.3,61.645a18.961,18.961,0,0,1,18.961,18.961Zm0,0" transform="translate(-149.917 -49.069)" fill="#5df388"/>
      <path id="Path_17368" data-name="Path 17368" d="M281.285,99.566V61.644a18.961,18.961,0,1,1,0,37.922Zm0,0" transform="translate(-223.901 -49.068)" fill="#4dc97f"/>
      <path id="Path_17369" data-name="Path 17369" d="M254.727,120.286a3.06,3.06,0,0,0-4.326-.121l-6.813,6.443-2.459-2.423a3.06,3.06,0,0,0-4.3,4.359l4.563,4.5a3.06,3.06,0,0,0,4.251.044l8.959-8.473a3.06,3.06,0,0,0,.121-4.326Zm0,0" transform="translate(-187.792 -94.985)" fill="#ebf7ff"/>
      <path id="Path_17370" data-name="Path 17370" d="M290.833,120.286a3.06,3.06,0,0,0-4.326-.121l-5.226,4.942v8.344a3.112,3.112,0,0,0,.472-.367l8.959-8.472a3.061,3.061,0,0,0,.121-4.326Zm0,0" transform="translate(-223.898 -94.985)" fill="#c4e5ff"/>
    </g>
  </g>
</svg>
