<svg xmlns="http://www.w3.org/2000/svg" width="25.817" height="23.295" viewBox="0 0 25.817 23.295">
  <g id="cardiogram" transform="translate(0 -25.006)">
    <path id="Path_4611" data-name="Path 4611" d="M12.9,27.148A7.569,7.569,0,0,0,1.261,36.7H6.826l.99-1.65A.756.756,0,0,1,9.1,35.038l2.088,3.281,3.044-6.426a.757.757,0,0,1,1.349-.035L18.193,36.7h6.348c4.7-7.349-4.591-15.722-11.64-9.556Z" transform="translate(0 0)" fill="#0e3f6c"/>
    <path id="Path_4612" data-name="Path 4612" d="M63.364,205.19l-2.114-3.927-2.99,6.312a.757.757,0,0,1-1.322.082l-2.167-3.4-.58.967a.756.756,0,0,1-.649.367h-4.8c.15.157-.651-.642,9.91,9.864a.756.756,0,0,0,1.067,0c10.4-10.345,9.76-9.707,9.91-9.864h-5.6A.756.756,0,0,1,63.364,205.19Z" transform="translate(-46.288 -167.37)" fill="#0e3f6c"/>
  </g>
</svg>
