<svg xmlns="http://www.w3.org/2000/svg" width="43.243" height="43.243" viewBox="0 0 43.243 43.243">
  <g id="Icons_virus" data-name="Icons/ virus" transform="translate(2.121 2.121)">
    <g id="Icons_virus-2" data-name="Icons/ virus">
      <circle id="Oval" cx="13.5" cy="13.5" r="13.5" transform="translate(6 6)" fill="none" stroke="#205072" stroke-linecap="round" stroke-linejoin="round" stroke-width="3"/>
      <path id="Path" d="M.131,0h0a4.255,4.255,0,0,1,0,6h0" transform="translate(19.369)" fill="none" stroke="#205072" stroke-linecap="round" stroke-linejoin="round" stroke-width="3"/>
      <path id="Path-2" data-name="Path" d="M0,0H0A4.193,4.193,0,0,1,4.2,4.2h0" transform="translate(5.7 5.7)" fill="none" stroke="#205072" stroke-linecap="round" stroke-linejoin="round" stroke-width="3"/>
      <path id="Path-3" data-name="Path" d="M0,1.369H0a4.255,4.255,0,0,1,6,0H6" transform="translate(0 18.131)" fill="none" stroke="#205072" stroke-linecap="round" stroke-linejoin="round" stroke-width="3"/>
      <path id="Path-4" data-name="Path" d="M0,4.2H0A4.193,4.193,0,0,1,4.2,0h0" transform="translate(5.7 29.1)" fill="none" stroke="#205072" stroke-linecap="round" stroke-linejoin="round" stroke-width="3"/>
      <path id="Path-5" data-name="Path" d="M1.369,6h0a4.255,4.255,0,0,1,0-6h0" transform="translate(18.131 33)" fill="none" stroke="#205072" stroke-linecap="round" stroke-linejoin="round" stroke-width="3"/>
      <path id="Path-6" data-name="Path" d="M4.2,4.2h0A4.193,4.193,0,0,1,0,0H0" transform="translate(29.1 29.1)" fill="none" stroke="#205072" stroke-linecap="round" stroke-linejoin="round" stroke-width="3"/>
      <path id="Path-7" data-name="Path" d="M6,.131H6a4.255,4.255,0,0,1-6,0H0" transform="translate(33 19.369)" fill="none" stroke="#205072" stroke-linecap="round" stroke-linejoin="round" stroke-width="3"/>
      <path id="Path-8" data-name="Path" d="M4.2,0h0A4.193,4.193,0,0,1,0,4.2H0" transform="translate(29.1 5.7)" fill="none" stroke="#205072" stroke-linecap="round" stroke-linejoin="round" stroke-width="3"/>
      <path id="Path-9" data-name="Path" d="M4.95,5.25A3.19,3.19,0,0,0,6,3,3,3,0,0,0,0,3,3.19,3.19,0,0,0,1.05,5.25,3.19,3.19,0,0,0,0,7.5a3,3,0,0,0,6,0A3.19,3.19,0,0,0,4.95,5.25Z" transform="translate(21 13.5)" fill="none" stroke="#e5184e" stroke-linecap="round" stroke-linejoin="round" stroke-width="2"/>
      <circle id="Oval-2" data-name="Oval" cx="2.25" cy="2.25" r="2.25" transform="translate(12 21)" fill="none" stroke="#e5184e" stroke-linecap="round" stroke-linejoin="round" stroke-width="2"/>
      <path id="Path-10" data-name="Path" d="M0,4.5,4.5,0" transform="translate(12 12)" fill="none" stroke="#e5184e" stroke-linecap="round" stroke-linejoin="round" stroke-width="2"/>
    </g>
  </g>
</svg>
