<svg id="Discount_2_" xmlns="http://www.w3.org/2000/svg" width="16.172" height="16.172" viewBox="0 0 35.172 35.172">
  <g id="Group_9029" data-name="Group 9029">
    <path id="Path_17522" data-name="Path 17522" d="M17.586,35.172a2.913,2.913,0,0,1-2.324-1.608,2.908,2.908,0,0,0-3.653-.979,2.84,2.84,0,0,1-2.782.171,2.84,2.84,0,0,1-1.243-2.495A2.908,2.908,0,0,0,4.91,27.587a2.84,2.84,0,0,1-2.495-1.243,2.84,2.84,0,0,1,.171-2.782,2.908,2.908,0,0,0-.979-3.653A2.913,2.913,0,0,1,0,17.586a2.913,2.913,0,0,1,1.608-2.324,2.909,2.909,0,0,0,.979-3.653,2.841,2.841,0,0,1-.171-2.782,2.841,2.841,0,0,1,2.5-1.243A2.908,2.908,0,0,0,7.585,4.911,2.84,2.84,0,0,1,8.827,2.416a2.84,2.84,0,0,1,2.782.171,2.909,2.909,0,0,0,3.653-.979A2.913,2.913,0,0,1,17.586,0a2.913,2.913,0,0,1,2.324,1.608,2.908,2.908,0,0,0,3.653.979,2.84,2.84,0,0,1,2.782-.171,2.841,2.841,0,0,1,1.243,2.495,2.908,2.908,0,0,0,2.674,2.674,2.84,2.84,0,0,1,2.495,1.243,2.84,2.84,0,0,1-.171,2.782,2.908,2.908,0,0,0,.979,3.653,2.913,2.913,0,0,1,1.608,2.324,2.913,2.913,0,0,1-1.608,2.324,2.909,2.909,0,0,0-.979,3.653,2.84,2.84,0,0,1,.171,2.782,2.84,2.84,0,0,1-2.495,1.243,2.909,2.909,0,0,0-2.674,2.674,2.84,2.84,0,0,1-1.243,2.495,2.84,2.84,0,0,1-2.782-.171,2.908,2.908,0,0,0-3.653.979,2.913,2.913,0,0,1-2.324,1.608Zm-.6-2.737a1.96,1.96,0,0,0,.6.667,1.96,1.96,0,0,0,.6-.667,4.957,4.957,0,0,1,6.305-1.69c.533.269.788.246.823.226s.182-.23.216-.826a4.957,4.957,0,0,1,4.616-4.616c.6-.034.806-.181.826-.216s.043-.29-.226-.823a4.957,4.957,0,0,1,1.69-6.306,1.961,1.961,0,0,0,.667-.6,1.96,1.96,0,0,0-.667-.6,4.957,4.957,0,0,1-1.689-6.306c.269-.533.246-.788.226-.823s-.23-.182-.826-.216A4.957,4.957,0,0,1,25.53,5.026c-.034-.6-.181-.806-.216-.826s-.29-.043-.823.226a4.957,4.957,0,0,1-6.306-1.69,1.96,1.96,0,0,0-.6-.667,1.961,1.961,0,0,0-.6.667,4.957,4.957,0,0,1-6.306,1.69c-.533-.269-.788-.246-.823-.226s-.182.23-.216.826A4.957,4.957,0,0,1,5.026,9.642c-.6.034-.806.181-.826.216s-.043.29.226.823a4.957,4.957,0,0,1-1.689,6.306,1.96,1.96,0,0,0-.667.6,1.96,1.96,0,0,0,.667.6,4.957,4.957,0,0,1,1.69,6.306c-.269.533-.246.788-.226.823s.23.182.826.216a4.957,4.957,0,0,1,4.616,4.616c.034.6.181.806.215.826s.29.043.823-.226a4.956,4.956,0,0,1,6.305,1.69Z" transform="translate(0 0)" fill="#47cacc"/>
  </g>
  <g id="Group_9030" data-name="Group 9030" transform="translate(10.352 8.295)">
    <path id="Path_17523" data-name="Path 17523" d="M154.121,127.242a3.121,3.121,0,1,1,3.121-3.121A3.125,3.125,0,0,1,154.121,127.242Zm0-4.162a1.04,1.04,0,1,0,1.04,1.04A1.042,1.042,0,0,0,154.121,123.081Z" transform="translate(-151 -121)" fill="#47cacc"/>
  </g>
  <g id="Group_9031" data-name="Group 9031" transform="translate(18.578 20.634)">
    <path id="Path_17524" data-name="Path 17524" d="M274.121,307.242a3.121,3.121,0,1,1,3.121-3.121A3.125,3.125,0,0,1,274.121,307.242Zm0-4.162a1.04,1.04,0,1,0,1.04,1.04A1.042,1.042,0,0,0,274.121,303.081Z" transform="translate(-271 -301)" fill="#47cacc"/>
  </g>
  <g id="Group_9032" data-name="Group 9032" transform="translate(10.511 8.638)">
    <path id="Path_17525" data-name="Path 17525" d="M0,0H20.808V2.081H0Z" transform="matrix(0.6, -0.8, 0.8, 0.6, 0, 16.647)" fill="#47cacc"/>
  </g>
</svg>
