<svg xmlns="http://www.w3.org/2000/svg" width="26.84" height="22.279" viewBox="0 0 26.84 22.279">
  <g id="gift-card" transform="translate(0 -43.506)">
    <path id="Path_17526" data-name="Path 17526" d="M25.005,48.485H15.667a3.276,3.276,0,0,0-5.554-3.474l-2.04,2.637-2.04-2.637a3.275,3.275,0,1,0-5.3,3.839A1.833,1.833,0,0,0,0,50.32V63.95a1.837,1.837,0,0,0,1.835,1.835h23.17A1.837,1.837,0,0,0,26.84,63.95V50.32A1.837,1.837,0,0,0,25.005,48.485Zm.262,15.464a.262.262,0,0,1-.262.262H8.859V51.252l1.588,2.2a.786.786,0,1,0,1.276-.92L9.937,50.059H25.005a.262.262,0,0,1,.262.262ZM3.276,45.079a1.7,1.7,0,0,1,1.445.8q.021.033.045.064l1.966,2.541H3.268a1.7,1.7,0,0,1,.008-3.407Zm8.148.8a1.7,1.7,0,1,1,1.454,2.605H9.414l1.966-2.541Q11.4,45.914,11.424,45.881ZM1.573,63.95V50.32a.262.262,0,0,1,.262-.262H6.273L4.719,52.336a.786.786,0,1,0,1.3.887l1.269-1.859V64.212H1.835A.262.262,0,0,1,1.573,63.95Z" fill="#707070"/>
    <path id="Path_17527" data-name="Path 17527" d="M261.786,230.067h3.932a.786.786,0,1,0,0-1.573h-3.932a.786.786,0,0,0,0,1.573Z" transform="translate(-247.318 -175.291)" fill="#707070"/>
    <path id="Path_17528" data-name="Path 17528" d="M268.863,288.494h-7.077a.786.786,0,1,0,0,1.573h7.077a.786.786,0,1,0,0-1.573Z" transform="translate(-247.318 -232.145)" fill="#707070"/>
    <path id="Path_17529" data-name="Path 17529" d="M268.863,348.494h-7.077a.786.786,0,1,0,0,1.573h7.077a.786.786,0,1,0,0-1.573Z" transform="translate(-247.318 -289)" fill="#707070"/>
  </g>
</svg>
