<svg xmlns="http://www.w3.org/2000/svg" width="25.635" height="23.138" viewBox="0 0 25.635 23.138">
  <g id="cardiogram_3_" data-name="cardiogram (3)" transform="translate(0 -24.925)">
    <path id="Path_4614" data-name="Path 4614" d="M25.633,32.283a7.569,7.569,0,0,0-12.816-5.23A7.569,7.569,0,0,0,0,32.283a8.144,8.144,0,0,0,2.617,5.945l9.669,9.617a.752.752,0,0,0,1.06,0l9.669-9.617A8.144,8.144,0,0,0,25.633,32.283ZM12.817,46.252l-8.25-8.205h2.64a.751.751,0,0,0,.644-.365l.577-.961L10.58,40.1a.752.752,0,0,0,1.313-.082l2.971-6.269,2.1,3.9a.751.751,0,0,0,.662.4h3.441Zm9.7-9.708H18.075l-2.592-4.813a.752.752,0,0,0-1.341.035l-3.024,6.383L9.043,34.89a.752.752,0,0,0-1.278.017l-.983,1.639H3.114A6.392,6.392,0,0,1,1.5,32.313c.094-4.684,6.065-8.416,10.782-3.7a.752.752,0,0,0,1.063,0c6.023-6.022,14.3,1.763,9.172,7.932Z" transform="translate(0 0)" fill="#a2a2a2"/>
  </g>
</svg>
