<svg xmlns="http://www.w3.org/2000/svg" width="23.295" height="23.295" viewBox="0 0 23.295 23.295">
  <g id="user_1_" data-name="user (1)" transform="translate(0 0)">
    <g id="Group_3535" data-name="Group 3535" transform="translate(0 0)">
      <path id="Path_4613" data-name="Path 4613" d="M19.884,3.412A11.648,11.648,0,0,0,3.412,19.884,11.648,11.648,0,0,0,19.884,3.412ZM11.648,21.93a10.247,10.247,0,0,1-7.135-2.885,7.509,7.509,0,0,1,14.27,0A10.247,10.247,0,0,1,11.648,21.93ZM8.235,9.1a3.412,3.412,0,1,1,3.412,3.412A3.416,3.416,0,0,1,8.235,9.1Zm11.572,8.8a8.9,8.9,0,0,0-5.359-4.93,4.777,4.777,0,1,0-5.6,0A8.9,8.9,0,0,0,3.488,17.9a10.283,10.283,0,1,1,16.32,0Z" transform="translate(0 0)" fill="#a2a2a2"/>
    </g>
  </g>
</svg>
