<svg xmlns="http://www.w3.org/2000/svg" width="27.677" height="23.138" viewBox="0 0 27.677 23.138">
  <g id="home_2_" data-name="home (2)" transform="translate(0 -41.982)">
    <g id="Group_3529" data-name="Group 3529" transform="translate(0 41.982)">
      <path id="Path_4607" data-name="Path 4607" d="M23.757,49.612v-5.83H18.936V45.9l-5.1-3.921L0,52.628,2.9,56.4,4.319,55.3V65.12h8.191V57.928h2.981V65.12h7.868V55.3l1.42,1.092,2.9-3.769ZM21.735,63.5h-4.62V56.3H10.886V63.5H5.942V54.055l7.9-6.074,7.9,6.074V63.5Zm2.746-9.377L13.838,45.933,3.2,54.12l-.919-1.195L13.838,44.03l6.721,5.17V45.406h1.574v5.005L25.4,52.925Z" transform="translate(0 -41.982)" fill="#a2a2a2"/>
    </g>
  </g>
</svg>
