<svg xmlns="http://www.w3.org/2000/svg" width="31.5" height="42" viewBox="0 0 31.5 42">
  <g id="Icons_heart2" data-name="Icons/ heart2" transform="translate(1.5 1.5)">
    <g id="Icons_heart2-2" data-name="Icons/ heart2">
      <path id="Path" d="M21.45,18.45a8.259,8.259,0,0,1-4.2-1.2c-3.15-2.1-3.3-5.4-.9-8.1S24,5.25,24,5.25V0L22.2.6A43.909,43.909,0,0,0,0,15.9H0" transform="translate(4.5 6)" fill="none" stroke="#205072" stroke-linecap="round" stroke-linejoin="round" stroke-width="3"/>
      <path id="Path-2" data-name="Path" d="M0,6V2.7A2.689,2.689,0,0,1,2.7,0H7.5V3" transform="translate(3 6)" fill="none" stroke="#e5184e" stroke-linecap="round" stroke-linejoin="round" stroke-width="3"/>
      <path id="Path-3" data-name="Path" d="M0,9V2.25A2.307,2.307,0,0,1,2.25,0h0A2.307,2.307,0,0,1,4.5,2.25V10.5" transform="translate(10.5)" fill="none" stroke="#205072" stroke-linecap="round" stroke-linejoin="round" stroke-width="3"/>
      <path id="Path-4" data-name="Path" d="M0,7.5V2.25A2.307,2.307,0,0,1,2.25,0h0A2.307,2.307,0,0,1,4.5,2.25V6" transform="translate(15 3)" fill="none" stroke="#205072" stroke-linecap="round" stroke-linejoin="round" stroke-width="3"/>
      <path id="Path-5" data-name="Path" d="M22.65,4.2a14.051,14.051,0,0,1,3.6,7.65c.9,5.1,7.2,17.1-6.45,17.1-7.35,0-19.8-6.6-19.8-17.1C0,5.25,4.65,0,11.85,0A20.173,20.173,0,0,1,17.1.75" transform="translate(0 10.05)" fill="none" stroke="#205072" stroke-linecap="round" stroke-linejoin="round" stroke-width="3"/>
    </g>
  </g>
</svg>
