<svg xmlns="http://www.w3.org/2000/svg" width="26.376" height="26.376" viewBox="0 0 26.376 26.376">
  <g id="help" transform="translate(0 0)">
    <g id="Group_8334" data-name="Group 8334" transform="translate(0 0)">
      <g id="Group_8333" data-name="Group 8333">
        <path id="Path_17187" data-name="Path 17187" d="M223.032,343.22a1.383,1.383,0,0,0,0,2.765,1.383,1.383,0,1,0,0-2.765Z" transform="translate(-210.248 -325.539)" fill="#0e3f6c"/>
        <path id="Path_17188" data-name="Path 17188" d="M187.559,140c-2.424,0-3.537,1.437-3.537,2.406a1.03,1.03,0,0,0,1.077,1.024c.97,0,.575-1.383,2.406-1.383.9,0,1.616.4,1.616,1.221,0,.97-1.006,1.526-1.6,2.029a3.287,3.287,0,0,0-1.2,2.729c0,.934.251,1.2.988,1.2.88,0,1.059-.4,1.059-.736a2.255,2.255,0,0,1,1.006-2.245c.485-.377,2.011-1.6,2.011-3.286S189.858,140,187.559,140Z" transform="translate(-174.542 -132.79)" fill="#0e3f6c"/>
        <path id="Path_17189" data-name="Path 17189" d="M13.188,0A13.181,13.181,0,0,0,0,13.188V25.346a1.03,1.03,0,0,0,1.03,1.03H13.188A13.188,13.188,0,1,0,13.188,0Zm0,24.315H2.061V13.188A11.127,11.127,0,1,1,13.188,24.315Z" fill="#e5184e"/>
      </g>
    </g>
  </g>
</svg>
