<svg xmlns="http://www.w3.org/2000/svg" width="39.253" height="39.726" viewBox="0 0 39.253 39.726">
  <g id="Group_8518" data-name="Group 8518" transform="translate(-250 -782)">
    <g id="kidney" transform="translate(250 782)">
      <path id="Path_17350" data-name="Path 17350" d="M30.234,18.814A16.1,16.1,0,0,0,34.4,16.207c.052,0,.107.021.158.021a1.74,1.74,0,0,0,1.13-.39v0a1.787,1.787,0,0,0,.617-1.251A4.025,4.025,0,0,0,35.248,11.8a5.229,5.229,0,0,0-.45-.474l1.313-2.321a1.352,1.352,0,0,0,.86-.551c.622-.905-.082-2.325-1.716-3.454-1.339-.92-3.113-1.426-3.846-.366a1.376,1.376,0,0,0-.189,1.049,97.722,97.722,0,0,1-6.649,8.534c-.573.127-1.121.234-1.632.324a8.489,8.489,0,0,0,1.944-4.7,8.927,8.927,0,0,0-3.3-7.723c-.02-.016-.042-.031-.064-.046A12.69,12.69,0,0,0,16.75.179a11.282,11.282,0,0,0-2.512-.17C5.919.387-.456,9.59.025,20.526c.48,10.718,7.368,19.2,15.473,19.2.165,0,.329,0,.5-.01.275-.013,6.78-.361,8.926-4.454a9.736,9.736,0,0,0,1.17-3.717,9.3,9.3,0,0,0-2.745-7.412c5.7.361,9.545,2.6,9.545,14.6a.749.749,0,0,0,.749.749H38.5a.749.749,0,0,0,.749-.749C39.253,27,34.974,21.521,30.234,18.814ZM22.124,16.2c2.5-.372,6.335-1.172,8.884-2.776a4.966,4.966,0,0,0,1.769,2.17,11.786,11.786,0,0,1-4.5,2.26A26.761,26.761,0,0,0,22.124,16.2Zm12.6-1.515a.522.522,0,0,1-.4.011,2.855,2.855,0,0,1-1.387-.956,2.818,2.818,0,0,1-.718-1.581.467.467,0,0,1,.09-.34.292.292,0,0,1,.187-.049,2.494,2.494,0,0,1,1.6,1,2.564,2.564,0,0,1,.711,1.685A.357.357,0,0,1,34.726,14.685ZM34.4,6.239a3.558,3.558,0,0,1,1.245,1.316,3.6,3.6,0,0,1-1.666-.7,3.643,3.643,0,0,1-1.246-1.31A3.579,3.579,0,0,1,34.4,6.239Zm-2.359.911a6.413,6.413,0,0,0,1.086.941,6.24,6.24,0,0,0,1.37.72l-.959,1.7a2.079,2.079,0,0,0-2.194.166,1.781,1.781,0,0,0-.594,1.106,12.4,12.4,0,0,1-3.639,1.758C28.521,11.851,30.547,9.339,32.046,7.149ZM24.6,31.417a8.169,8.169,0,0,1-1,3.148c-1.751,3.34-7.609,3.65-7.666,3.653-7.488.307-13.951-7.648-14.4-17.758S6.812,1.847,14.3,1.507a9.933,9.933,0,0,1,2.184.148,11.2,11.2,0,0,1,4.19,1.66,7.43,7.43,0,0,1,2.714,6.4,7.219,7.219,0,0,1-4.379,5.964c-2.721-.7-3.637-3.75-3.939-5.576a.749.749,0,0,0-1.482-.084.655.655,0,0,0-.01.065,3.355,3.355,0,0,1-3.158,2.65.749.749,0,0,0-.546,1.228,3.365,3.365,0,0,1-.624,4.884.749.749,0,0,0-.138,1.094,3.373,3.373,0,0,1-.723,4.985.75.75,0,0,0,.556,1.362,3.064,3.064,0,0,1,.582-.053,3.359,3.359,0,0,1,3.347,3,.75.75,0,0,0,.666.664.76.76,0,0,0,.791-.508c.8-2.389,2.564-5.222,6.445-5.311a7.662,7.662,0,0,1,3.819,7.34Zm9.788,6.569c-.2-14.242-6.2-15.417-13.426-15.417a7.881,7.881,0,0,0-7.266,4.506,4.859,4.859,0,0,0-3.125-2.229,4.884,4.884,0,0,0,.131-5.259,4.862,4.862,0,0,0,.986-5.55A4.843,4.843,0,0,0,14.1,12.4c.687,2.036,2.068,4.254,4.845,4.806.484.1,1.061.184,1.71.28,5.895.878,16.8,2.5,17.094,20.5H34.383Z" transform="translate(0 0)" fill="#0e3f6c"/>
      <path id="Path_17351" data-name="Path 17351" d="M18.487,44.548a7.837,7.837,0,0,1-3.076-.616l-.593,1.376a9.332,9.332,0,0,0,3.669.739c4.34,0,7.87-2.891,7.87-6.446h-1.5c0,2.727-2.859,4.947-6.371,4.947Z" transform="translate(-3.712 -9.921)" fill="#e5184e"/>
      <path id="Path_17352" data-name="Path 17352" d="M18.487,44.548a7.837,7.837,0,0,1-3.076-.616l-.593,1.376a9.332,9.332,0,0,0,3.669.739c4.34,0,7.87-2.891,7.87-6.446h-1.5c0,2.727-2.859,4.947-6.371,4.947Z" transform="translate(33.463 49.727) rotate(180)" fill="#e5184e"/>
    </g>
  </g>
</svg>
