<svg xmlns="http://www.w3.org/2000/svg" width="26.441" height="26.376" viewBox="0 0 26.441 26.376">
  <g id="Group_8336" data-name="Group 8336" transform="translate(0 0)">
    <path id="address_2_" data-name="address (2)" d="M10.561,23.682V26.36l-.648-.523a43.411,43.411,0,0,1-4.895-4.785C1.688,17.229,0,13.8,0,10.852V10.56a10.561,10.561,0,0,1,21.122,0v.292c0,.247-.013.5-.037.753L19.019,9.72a8.5,8.5,0,0,0-16.959.84v.292c0,4.977,6.412,11,8.5,12.831ZM16.9,22.2h3.091V19.111H16.9ZM10.561,6.181A4.379,4.379,0,1,1,6.182,10.56,4.384,4.384,0,0,1,10.561,6.181Zm0,2.061a2.318,2.318,0,1,0,2.318,2.318A2.321,2.321,0,0,0,10.561,8.242ZM25.052,20.8l-.579-.529v3.308a2.8,2.8,0,0,1-2.794,2.794H15.155a2.8,2.8,0,0,1-2.794-2.794V20.274l-.579.529L10.393,19.28l8.024-7.32,8.024,7.32Zm-2.64-2.408-4-3.645-3.995,3.645v5.188a.734.734,0,0,0,.733.733h6.524a.734.734,0,0,0,.733-.733Zm0,0" transform="translate(0 0.001)" fill="#e5184e"/>
    <rect id="Rectangle_2866" data-name="Rectangle 2866" width="3.966" height="3.966" transform="translate(16.525 18.539)" fill="#0e3f6c"/>
  </g>
</svg>
