<svg xmlns="http://www.w3.org/2000/svg" width="38.057" height="37.266"  viewBox="0 0 23.057 20.266">
  <g id="Group_4551" data-name="Group 4551" transform="translate(-358.943 -253.867)">
    <g id="shopping-cart_1_" data-name="shopping-cart (1)" transform="translate(358.943 253.867)">
      <path id="Path_5606" data-name="Path 5606" d="M7.475,13.511h12.2a.673.673,0,0,0,.649-.49l2.7-9.457a.675.675,0,0,0-.649-.861H5.916L5.433.529A.675.675,0,0,0,4.773,0H.675a.676.676,0,0,0,0,1.351H4.231L6.671,12.328a2.025,2.025,0,0,0,.8,3.884h12.2a.676.676,0,0,0,0-1.351H7.475a.676.676,0,0,1,0-1.351Zm0,0" transform="translate(0 0)" fill="#a2a2a2"/>
      <path id="Path_5607" data-name="Path 5607" d="M151,362.031A2.027,2.027,0,1,0,153.027,360,2.029,2.029,0,0,0,151,362.031Zm0,0" transform="translate(-144.2 -343.791)" fill="#a2a2a2"/>
      <path id="Path_5608" data-name="Path 5608" d="M362,362.031A2.027,2.027,0,1,0,364.03,360,2.029,2.029,0,0,0,362,362.031Zm0,0" transform="translate(-345.702 -343.791)" fill="#a2a2a2"/>
    </g>
    <path id="Icon_metro-cross" data-name="Icon metro-cross" d="M7.523,5.944h0L6.007,4.427,7.523,2.911h0a.157.157,0,0,0,0-.221l-.716-.716a.157.157,0,0,0-.221,0h0L5.07,3.49,3.554,1.974h0a.157.157,0,0,0-.221,0l-.716.716a.157.157,0,0,0,0,.221h0L4.133,4.427,2.616,5.944h0a.157.157,0,0,0,0,.221l.716.716a.157.157,0,0,0,.221,0h0L5.07,5.364,6.586,6.881h0a.157.157,0,0,0,.221,0l.716-.716a.157.157,0,0,0,0-.221Z" transform="translate(372.36 255.563) rotate(45)" fill="#fff"/>
  </g>
</svg>
