<svg xmlns="http://www.w3.org/2000/svg" xmlns:xlink="http://www.w3.org/1999/xlink" width="294.173" height="203.475" viewBox="0 0 294.173 203.475">
  <defs>
    <clipPath id="clip-path">
      <rect id="Rectangle_2708" data-name="Rectangle 2708" width="60.381" height="20.195" fill="none"/>
    </clipPath>
    <clipPath id="clip-path-2">
      <rect id="Rectangle_2713" data-name="Rectangle 2713" width="41.337" height="14.142" fill="none"/>
    </clipPath>
    <clipPath id="clip-path-3">
      <rect id="Rectangle_2714" data-name="Rectangle 2714" width="40.718" height="35.103" fill="none"/>
    </clipPath>
    <clipPath id="clip-path-4">
      <rect id="Rectangle_2715" data-name="Rectangle 2715" width="3.067" height="2.536" fill="none"/>
    </clipPath>
    <clipPath id="clip-path-5">
      <rect id="Rectangle_2716" data-name="Rectangle 2716" width="3.066" height="2.536" fill="none"/>
    </clipPath>
    <clipPath id="clip-path-6">
      <rect id="Rectangle_2717" data-name="Rectangle 2717" width="3.908" height="3.231" fill="none"/>
    </clipPath>
    <clipPath id="clip-path-8">
      <rect id="Rectangle_2721" data-name="Rectangle 2721" width="10.088" height="5.221" fill="none"/>
    </clipPath>
    <clipPath id="clip-path-9">
      <rect id="Rectangle_2723" data-name="Rectangle 2723" width="5.043" height="58.616" fill="none"/>
    </clipPath>
    <clipPath id="clip-path-12">
      <rect id="Rectangle_2726" data-name="Rectangle 2726" width="41.531" height="52.468" fill="none"/>
    </clipPath>
  </defs>
  <g id="Group_4542" data-name="Group 4542" transform="translate(-59.914 -244.525)">
    <path id="Path_5550" data-name="Path 5550" d="M2482.715,584.394a.621.621,0,0,1-.519-.962c.958-1.462,1.874-2.982,2.723-4.52a.621.621,0,0,1,1.088.6c-.864,1.564-1.8,3.112-2.772,4.6a.621.621,0,0,1-.52.281m5.865-10.936a.622.622,0,0,1-.571-.866c.69-1.61,1.328-3.267,1.9-4.925a.621.621,0,0,1,1.175.4c-.579,1.687-1.228,3.373-1.93,5.011a.622.622,0,0,1-.571.377m3.879-11.788a.622.622,0,0,1-.605-.763c.3-1.27.563-2.564.789-3.845q.038-.217.072-.419a11.646,11.646,0,0,1-2.438.269h-.031a.621.621,0,0,1,0-1.242h.028a12.378,12.378,0,0,0,4.881-1.125.621.621,0,0,1,.494,1.14,16.908,16.908,0,0,1-1.623.609c-.047.307-.1.632-.163.984-.229,1.3-.5,2.62-.8,3.913a.621.621,0,0,1-.6.479m-8.332-7.768a.621.621,0,0,1-.51-.266,6.426,6.426,0,0,1-1.161-3.164c-.01-.135-.016-.272-.016-.408a5.745,5.745,0,0,1,.389-2.062.621.621,0,1,1,1.16.445,4.5,4.5,0,0,0-.307,1.617c0,.1,0,.21.012.313a5.186,5.186,0,0,0,.942,2.549.621.621,0,0,1-.509.976m17.216-2.009a.621.621,0,0,1-.411-1.087,24.135,24.135,0,0,0,3.493-3.826.621.621,0,0,1,1,.734,25.389,25.389,0,0,1-3.674,4.024.619.619,0,0,1-.411.155m-8.44-2.432a.622.622,0,0,1-.566-.364,6.013,6.013,0,0,0-3.423-3.2.621.621,0,1,1,.386-1.181,7.292,7.292,0,0,1,4.168,3.861.622.622,0,0,1-.565.879" transform="translate(-2245.193 -261.326)" fill="#87b1e0"/>
    <path id="Path_5551" data-name="Path 5551" d="M2865.67,216.67a2.422,2.422,0,0,1-1.669,1.759l-28.938,8.534a2.412,2.412,0,0,1-1.778-.162l-12.835-6.5a2.421,2.421,0,0,1-1-3.382l7.257-12.421a2.413,2.413,0,0,1,1.406-1.1l28.938-8.534a2.424,2.424,0,0,1,3.007,1.638l5.579,18.916a2.4,2.4,0,0,1,.032,1.249" transform="translate(-2558.187 63.645)" fill="#578cca"/>
    <path id="Path_5552" data-name="Path 5552" d="M2822.665,19.967,2818.4,36.7a2.365,2.365,0,0,0,1.963,2.888l17.131,2.184a2.052,2.052,0,0,0,1.419-.332L2866,23.022a2.2,2.2,0,0,0,.485-3.074L2853.619,1.031a2.2,2.2,0,0,0-3.037-.679L2823.5,18.77a2.051,2.051,0,0,0-.831,1.2m5.261,12.366a2.266,2.266,0,1,1-3.148-.6,2.266,2.266,0,0,1,3.148.6" transform="translate(-2557.452 244.522)" fill="#87b1e0"/>
    <path id="Path_5553" data-name="Path 5553" d="M3058.426,237.361a3.569,3.569,0,1,1,1.312-.252,3.553,3.553,0,0,1-1.312.252m0-5.791a2.234,2.234,0,1,0,.884.184,2.228,2.228,0,0,0-.884-.184" transform="translate(-2777.123 30.705)" fill="#fff"/>
    <path id="Path_5554" data-name="Path 5554" d="M3118.494,219.027a.666.666,0,0,1-.61-.93l5.78-13.365a.666.666,0,1,1,1.222.528l-5.78,13.365a.665.665,0,0,1-.611.4" transform="translate(-2835.596 54.765)" fill="#fff"/>
    <path id="Path_5555" data-name="Path 5555" d="M3184.221,291.781a3.568,3.568,0,1,1,1.312-.252,3.552,3.552,0,0,1-1.312.252m0-5.79a2.229,2.229,0,1,0,.881.183,2.232,2.232,0,0,0-.881-.183" transform="translate(-2893.949 -19.837)" fill="#fff"/>
    <path id="Path_5556" data-name="Path 5556" d="M2162.821,963a11.307,11.307,0,0,1-5.153,6.1,23.071,23.071,0,0,1-2.767,1.451c-.6.264-1.18.489-1.741.682h0c-.677.233-1.323.419-1.927.566a20.065,20.065,0,0,1-2.778.478,12.716,12.716,0,0,1-2.042.064l-14.261-4.432-1.987-.618c.07-.268.17-.625.307-1.055a27.382,27.382,0,0,1,1.707-4.108A26.5,26.5,0,0,1,2145.6,949.58c13.056-5.492,17.384,2.745,17.749,6.86a20.116,20.116,0,0,1,0,4.178,11.89,11.89,0,0,1-.527,2.38" transform="translate(-1918.357 -635.646)" fill="#578cca"/>
    <path id="Path_5557" data-name="Path 5557" d="M2390.63,1068.292a11.308,11.308,0,0,1-5.154,6.1,23.082,23.082,0,0,1-2.766,1.45h0c3.053-8.839-7.246-9.71-7.246-9.71l7.562-5s8.291-.575,7.6,7.153" transform="translate(-2146.166 -740.94)" fill="#87b1e0"/>
    <path id="Path_5558" data-name="Path 5558" d="M1775.563,827.608c-.013.049-.027.1-.039.137l-16.539-3.956a12.746,12.746,0,0,1-1.765-1.1,20.123,20.123,0,0,1-2.162-1.8,22.486,22.486,0,0,1-4.206-5.531c-3.2-5.9-1.083-10.262,1.4-13.8,2.371-3.383,10.234-8.358,18.8,2.921a26.526,26.526,0,0,1,5.351,17.762,27.287,27.287,0,0,1-.563,4.222c-.105.487-.206.875-.282,1.147" transform="translate(-1564.587 -496.101)" fill="#578cca"/>
    <path id="Path_5559" data-name="Path 5559" d="M1749.137,887a11.307,11.307,0,0,0,1.417,7.861,23.079,23.079,0,0,0,1.672,2.638h0c1.77-9.183,11.126-4.794,11.126-4.794l-4.057-8.1s-6.9-4.638-10.16,2.4" transform="translate(-1564.311 -575.602)" fill="#87b1e0"/>
    <path id="Path_5560" data-name="Path 5560" d="M1907.8,879.4c-.084-.092-10.786-11.894-12.742-16.07-1.752-3.74-1.688-8.572,2.692-6.443h0a12.321,12.321,0,0,1,1.788,1.1c4.537,3.269,6.807,12.783,7.735,17.962.367,2.049.524,3.419.528,3.456" transform="translate(-1699.021 -550.773)" fill="#14244d"/>
    <path id="Path_5561" data-name="Path 5561" d="M2176.718,1014.274s10.061-13.636,17.855-14.429c7.51-.764,5.006,4.218,1.211,6.87s-19.066,7.559-19.066,7.559" transform="translate(-1961.592 -683.952)" fill="#14244d"/>
    <path id="Path_5562" data-name="Path 5562" d="M1907.8,879.4c-.084-.092-10.786-11.894-12.742-16.07-1.752-3.74-1.688-8.572,2.692-6.443h0c0,.094-3.819,6.441,9.523,19.057.367,2.049.524,3.419.528,3.456" transform="translate(-1699.021 -550.773)" fill="#141835"/>
    <path id="Path_5563" data-name="Path 5563" d="M2176.722,1014.561c.118-.038,15.285-4.917,19.065-7.559,3.386-2.365,5.743-6.584.886-6.926h0c-.044.083.092,7.488-17.768,11.754-1.341,1.592-2.161,2.7-2.183,2.731" transform="translate(-1961.596 -684.24)" fill="#141835"/>
    <path id="Path_5564" data-name="Path 5564" d="M2069.224,1163.447l-9.057-2.424c.012-.047.025-.093.04-.139a4.634,4.634,0,0,1,.487-1.092,4.687,4.687,0,0,1,8.565,3.517c-.01.046-.022.091-.034.137" transform="translate(-1853.352 -830.481)" fill="#14244d"/>
    <rect id="Rectangle_2704" data-name="Rectangle 2704" width="61.31" height="61.31" transform="matrix(0.259, -0.966, 0.966, 0.259, 164.429, 388.384)" fill="#87b1e0"/>
    <rect id="Rectangle_2705" data-name="Rectangle 2705" width="10.84" height="68.406" transform="matrix(0.259, -0.966, 0.966, 0.259, 175.563, 333.123)" fill="#87b1e0"/>
    <rect id="Rectangle_2706" data-name="Rectangle 2706" width="67.1" height="6.439" transform="translate(190.929 395.484) rotate(-75)" fill="#fff"/>
    <g id="Group_4508" data-name="Group 4508" transform="translate(177.83 334.041)">
      <g id="Group_4507" data-name="Group 4507" clip-path="url(#clip-path)">
        <rect id="Rectangle_2707" data-name="Rectangle 2707" width="4.48" height="61.31" transform="translate(0 4.327) rotate(-75)" fill="#578cca"/>
      </g>
    </g>
    <rect id="Rectangle_2709" data-name="Rectangle 2709" width="41.879" height="41.879" transform="translate(135.877 380.686) rotate(-75)" fill="#578cca"/>
    <rect id="Rectangle_2710" data-name="Rectangle 2710" width="7.405" height="46.726" transform="translate(143.482 342.938) rotate(-75)" fill="#578cca"/>
    <rect id="Rectangle_2711" data-name="Rectangle 2711" width="45.834" height="4.398" transform="translate(153.979 385.535) rotate(-75)" fill="#fff"/>
    <g id="Group_4511" data-name="Group 4511" transform="translate(144.938 343.565)">
      <g id="Group_4510" data-name="Group 4510" clip-path="url(#clip-path-2)">
        <rect id="Rectangle_2712" data-name="Rectangle 2712" width="3.419" height="41.879" transform="translate(0 3.303) rotate(-75)" fill="#578cca"/>
      </g>
    </g>
    <path id="Path_5565" data-name="Path 5565" d="M862.647,912.749l-22.671-1.672h-.006c-.031,0-.061,0-.092,0h-.046l-.055,0a1.352,1.352,0,0,0-.538.155l-.036.018-.038.024a1.352,1.352,0,0,0-.31.262c-.017.019-.034.038-.05.058l-.022.031c-.02.027-.039.054-.057.082l0,0L817.7,945.442,696.17,912.878a1.359,1.359,0,0,0-1.711,1.323l.53,69.868a1.36,1.36,0,0,0,1.007,1.3l.013,0,.01,0,66.711,17.875.734.2,17.258,4.624h0l.009,0,7.566,2.027c3.631.973,6.032,2.647,7.137,4.976.949,2,1.009,4.589.177,7.692a10.355,10.355,0,0,1-12.668,7.313L668.529,999.428a1.359,1.359,0,0,0-.7,2.626l114.418,30.658a13.077,13.077,0,0,0,16-9.236c1-3.744.886-6.961-.347-9.561-1.462-3.082-4.453-5.248-8.889-6.436l-5.8-1.555,36.262-58.175.01-.016,21.121-33.884,21.852,1.612a1.359,1.359,0,0,0,.2-2.712M791.29,941.18l-6.255,13.414L753.6,946.171l3.772-14.079Zm-43.672,22.41-4.1,15.3L719.4,972.424l1.4-16.02Zm-26.709-8.47,1.4-16.02,29.734,7.967-4.1,15.3Zm27.934,8.8L777.15,971.5l-6.8,14.574-25.609-6.862Zm.328-1.226,4.1-15.3,31.22,8.365-6.8,14.574Zm6.974-30.93-3.772,14.079-29.95-8.025,1.29-14.744Zm-58.955-15.8,25.277,6.773-1.29,14.744-23.873-6.4Zm.125,16.437,23.75,6.364-1.4,16.02-22.224-5.955Zm.135,17.745,22.1,5.922-1.4,16.02-20.576-5.513Zm.249,32.866-.115-15.12,20.454,5.481-1.29,14.744Zm20.294,5.438,1.29-14.744,23.907,6.406-3.772,14.079Zm22.651,6.069,3.772-14.079,25.393,6.8-6.255,13.414Zm39.813,10.668-15.658-4.2,6.255-13.414,17.463,4.679Zm8.761-14.056-17.62-4.721,6.8-14.574,19.581,5.246Zm9.459-15.174-19.738-5.289,6.8-14.574,21.7,5.814Zm9.459-15.175-21.856-5.856,6.255-13.414,23.66,6.34Z" transform="translate(-559.355 -601.584)" fill="#14356b"/>
    <path id="Path_5566" data-name="Path 5566" d="M782.387,1030.162a13.344,13.344,0,0,1-3.457-.458L664.512,999.046a1.609,1.609,0,0,1,.833-3.108L779.764,1026.6a10.105,10.105,0,0,0,12.362-7.137c.816-3.045.761-5.575-.162-7.521-1.072-2.259-3.419-3.888-6.976-4.841l-7.56-2.026-.013,0-.017,0-84.7-22.7-.013,0a1.613,1.613,0,0,1-1.192-1.542l-.53-69.868a1.609,1.609,0,0,1,2.025-1.566L814.336,941.9l20.931-33.579,0,0c.02-.031.042-.061.063-.091l0-.007.021-.029c.017-.021.033-.04.05-.059l.01-.011a1.6,1.6,0,0,1,.367-.31l.009-.006.036-.023.034-.017.008,0a1.593,1.593,0,0,1,.637-.184h.014l.05,0h.055c.033,0,.066,0,.1,0h.019l22.668,1.672a1.609,1.609,0,1,1-.237,3.209l-21.7-1.6-57.135,91.662,5.478,1.468c4.51,1.209,7.555,3.419,9.05,6.571,1.26,2.655,1.381,5.93.362,9.733a13.348,13.348,0,0,1-12.847,9.87m-117.458-33.78a1.11,1.11,0,0,0-.288,2.182l114.418,30.658a12.827,12.827,0,0,0,15.692-9.059c.987-3.685.876-6.844-.331-9.39-1.429-3.013-4.366-5.133-8.729-6.3l-6.128-1.642.178-.286,57.473-92.2,22,1.623a1.11,1.11,0,0,0,.163-2.214l-22.664-1.671H836.7c-.025,0-.05,0-.075,0h-.038l-.021,0-.024,0a1.1,1.1,0,0,0-.439.126l-.022.011-.016.009-.022.014a1.1,1.1,0,0,0-.252.213l-.012.014-.03.035,0,0-.014.02c-.016.021-.032.043-.046.066l-.007.01-21.118,33.879-.179-.048L692.857,909.869a1.11,1.11,0,0,0-1.4,1.081l.53,69.868a1.112,1.112,0,0,0,.814,1.062l.02,0,.018.005,92.276,24.725c3.7.993,6.16,2.712,7.3,5.11.975,2.055,1.04,4.7.193,7.864a10.587,10.587,0,0,1-12.973,7.49L665.216,996.419a1.109,1.109,0,0,0-.287-.038m112.393,5.846-16.124-4.32,6.469-13.873,17.99,4.82Zm-15.42-4.648,15.192,4.071,7.784-12.487-16.935-4.538Zm-1.459.126-23.354-6.258,3.9-14.561,25.921,6.946ZM737.7,991.094l22.467,6.02,6.041-12.954L741.344,977.5Zm-1.355.154-21.868-5.86,1.334-15.249,24.436,6.548Zm-21.335-6.233,20.982,5.622,3.643-13.6-23.379-6.265Zm71.072,3.157L768,983.326l7.01-15.034,20.108,5.388ZM768.7,983l17.154,4.6,8.481-13.606-19.053-5.105Zm-54.979,2.188-19.52-5.23-.119-15.638,20.973,5.62ZM694.7,979.572l18.578,4.978,1.246-14.239-19.935-5.342Zm72.544,3.551-26.052-6.981,4.228-15.779.241.065,28.594,7.662ZM741.8,975.79l25.166,6.743,6.582-14.115-27.778-7.443Zm-1.355.154-.241-.065-24.326-6.518,1.446-16.525,27.349,7.328Zm-24.033-6.956,23.68,6.345,3.97-14.815-26.292-7.045ZM795.542,973l-20.2-5.414,7.01-15.034,22.226,5.955Zm-19.5-5.742,19.272,5.164,8.481-13.606-21.171-5.673Zm-60.917,1.9-21.047-5.639-.128-16.947,22.621,6.061Zm-20.55-6.023,20.105,5.387,1.357-15.515-21.583-5.783Zm80.009,4.246-.2-.054-28.764-7.707,4.228-15.779,31.748,8.507Zm-28.354-8.114,28.079,7.524,6.582-14.115L750.2,944.452Zm-1.355.154-.241-.065-27.239-7.3,1.446-16.525,30.263,8.109Zm-26.947-7.737,26.594,7.126,3.97-14.815-29.206-7.826ZM805,957.823l-22.322-5.981,6.469-13.873,24.188,6.481Zm-21.618-6.309,21.39,5.731,7.784-12.487-23.133-6.2Zm-66.744.342-22.7-6.081-.129-16.947,24.269,6.5Zm-22.2-6.465,21.753,5.829,1.357-15.515-23.231-6.225Zm87.484,6.249-.2-.054L750.045,943.1l3.9-14.561,34.447,9.23Zm-31.268-8.895,30.993,8.3,6.041-12.954-33.39-8.947Zm-1.355.154-30.394-8.144,1.334-15.249.287.077,32.674,8.755Zm-29.86-8.518,29.507,7.906,3.643-13.6-31.9-8.549Zm-1.289.171-24.344-6.523-.119-15.638,25.8,6.912Zm-23.847-6.906,23.4,6.27,1.246-14.239L694.2,913.042Z" transform="translate(-556.107 -598.334)" fill="#14356b"/>
    <path id="Path_5567" data-name="Path 5567" d="M952.5,2332.456a7.887,7.887,0,1,0,5.577,9.66,7.9,7.9,0,0,0-5.577-9.66m2.951,8.956a5.168,5.168,0,1,1-3.655-6.33,5.174,5.174,0,0,1,3.655,6.33" transform="translate(-815.445 -1921.363)" fill="#a2a2a2"/>
    <path id="Path_5568" data-name="Path 5568" d="M947.206,2344.961a8.133,8.133,0,1,1,7.861-6.032,8.112,8.112,0,0,1-7.861,6.032m0-15.776a7.635,7.635,0,1,0,1.975.261,7.651,7.651,0,0,0-1.975-.261m0,13.058a5.419,5.419,0,1,1,5.229-4.017l-.241-.065.241.065a5.432,5.432,0,0,1-5.229,4.017m0-10.339a4.92,4.92,0,1,0,1.272.168,4.928,4.928,0,0,0-1.272-.168" transform="translate(-812.195 -1918.113)" fill="#a2a2a2"/>
    <path id="Path_5569" data-name="Path 5569" d="M1893.132,2584.5a7.887,7.887,0,1,0,5.577,9.66,7.9,7.9,0,0,0-5.577-9.66m2.951,8.956a5.168,5.168,0,1,1-3.655-6.33,5.174,5.174,0,0,1,3.655,6.33" transform="translate(-1689.006 -2155.434)" fill="#a2a2a2"/>
    <path id="Path_5570" data-name="Path 5570" d="M1887.816,2597a8.137,8.137,0,1,1,7.861-6.032,8.113,8.113,0,0,1-7.861,6.032m0-15.776a7.64,7.64,0,1,0,1.975.261,7.651,7.651,0,0,0-1.975-.261m0,13.057a5.418,5.418,0,1,1,5.234-4.016,5.4,5.4,0,0,1-5.234,4.016m0-10.338a4.921,4.921,0,1,0,1.272.168,4.928,4.928,0,0,0-1.272-.168" transform="translate(-1685.733 -2152.183)" fill="#a2a2a2"/>
    <path id="Path_5571" data-name="Path 5571" d="M1956.7,2654.165a2.908,2.908,0,1,0,2.056,3.562,2.911,2.911,0,0,0-2.056-3.562m.831,3.233a1.639,1.639,0,1,1-1.159-2.008,1.641,1.641,0,0,1,1.159,2.008" transform="translate(-1753.864 -2220.291)" fill="#a2a2a2"/>
    <path id="Path_5572" data-name="Path 5572" d="M1952.7,2656.873a3.158,3.158,0,1,1,3.051-2.341,3.163,3.163,0,0,1-3.051,2.341m0-5.817a2.661,2.661,0,1,0,.69.091,2.646,2.646,0,0,0-.69-.091m0,4.548a1.888,1.888,0,1,1,1.825-1.4,1.895,1.895,0,0,1-1.825,1.4m0-3.279a1.39,1.39,0,1,0,.359.048,1.392,1.392,0,0,0-.359-.048" transform="translate(-1750.613 -2217.032)" fill="#a2a2a2"/>
    <path id="Path_5573" data-name="Path 5573" d="M1016.069,2402.124a2.908,2.908,0,1,0,2.056,3.562,2.911,2.911,0,0,0-2.056-3.562m.831,3.233a1.639,1.639,0,1,1-1.159-2.008,1.641,1.641,0,0,1,1.159,2.008" transform="translate(-880.304 -1986.222)" fill="#a2a2a2"/>
    <path id="Path_5574" data-name="Path 5574" d="M1012.065,2404.839a3.156,3.156,0,1,1,3.051-2.341,3.143,3.143,0,0,1-3.051,2.341m0-5.817a2.659,2.659,0,1,0,.687.091,2.663,2.663,0,0,0-.687-.091m0,4.548a1.9,1.9,0,0,1-.491-.065,1.878,1.878,0,1,1,.491.065m0-3.279a1.39,1.39,0,1,0,.359.047,1.392,1.392,0,0,0-.359-.047" transform="translate(-877.054 -1982.971)" fill="#a2a2a2"/>
    <path id="Path_5575" data-name="Path 5575" d="M941.524,1478.95a.628.628,0,0,0,.17.022.634.634,0,0,0,.629-.64l-.235-28.612a.634.634,0,1,0-1.269.01l.235,28.611a.634.634,0,0,0,.47.608" transform="translate(-813.82 -1101.238)" fill="#14356b"/>
    <path id="Path_5576" data-name="Path 5576" d="M938.436,1475.971a.883.883,0,0,1-.883-.877l-.235-28.611a.884.884,0,1,1,1.768-.014l.235,28.611a.885.885,0,0,1-.877.891Zm-.233-29.88h0a.385.385,0,0,0-.382.388l.235,28.612a.386.386,0,0,0,.285.369h0a.414.414,0,0,0,.1.013.385.385,0,0,0,.382-.388l-.235-28.612a.384.384,0,0,0-.383-.382" transform="translate(-810.568 -1097.988)" fill="#14356b"/>
    <path id="Path_5577" data-name="Path 5577" d="M836.393,1238.289a.635.635,0,0,0,.8-.618l-.134-16.277a.634.634,0,1,0-1.269.01l.134,16.277a.634.634,0,0,0,.47.608" transform="translate(-716.279 -889.192)" fill="#14356b"/>
    <path id="Path_5578" data-name="Path 5578" d="M833.306,1235.308a.883.883,0,0,1-.883-.877l-.134-16.277a.884.884,0,1,1,1.768-.014l.134,16.277a.884.884,0,0,1-.877.891h-.008m-.132-17.546h0a.385.385,0,0,0-.382.388l.134,16.277a.386.386,0,0,0,.285.369h0a.378.378,0,0,0,.1.013.385.385,0,0,0,.382-.388l-.134-16.277a.384.384,0,0,0-.384-.382" transform="translate(-713.028 -885.94)" fill="#14356b"/>
    <path id="Path_5579" data-name="Path 5579" d="M838.735,1503.177a.634.634,0,0,0-.629.64l.07,8.474a.634.634,0,1,0,1.269-.01l-.07-8.474a.634.634,0,0,0-.64-.629" transform="translate(-718.43 -1151.467)" fill="#14356b"/>
    <path id="Path_5580" data-name="Path 5580" d="M835.557,1509.919a.883.883,0,0,1-.883-.877l-.07-8.474a.884.884,0,1,1,1.768-.015l.07,8.474a.884.884,0,0,1-.877.891Zm-.072-9.743h0a.385.385,0,0,0-.382.388l.07,8.474a.385.385,0,0,0,.285.369.394.394,0,0,0,.1.013.384.384,0,0,0,.382-.388l-.07-8.474a.383.383,0,0,0-.115-.271.372.372,0,0,0-.273-.11Z" transform="translate(-715.179 -1148.216)" fill="#14356b"/>
    <path id="Path_5581" data-name="Path 5581" d="M3450.088,2248.442h-40.717l3.7-43.329h33.32Z" transform="translate(-3106.351 -1803.352)" fill="#87b1e0"/>
    <path id="Path_5582" data-name="Path 5582" d="M3568.329,2065.836a10.5,10.5,0,0,0-20.688,2.536h2.646a7.853,7.853,0,1,1,15.706,0h2.646a10.445,10.445,0,0,0-.31-2.536" transform="translate(-3234.761 -1666.61)" fill="#87b1e0"/>
    <g id="Group_4514" data-name="Group 4514" transform="translate(303.021 409.987)">
      <g id="Group_4513" data-name="Group 4513" clip-path="url(#clip-path-3)">
        <path id="Path_5583" data-name="Path 5583" d="M3447.093,2320.465s-7.061,25.708-36.823,24.594l-.9,10.51h40.717Z" transform="translate(-3409.372 -2320.465)" fill="#578cca"/>
      </g>
    </g>
    <g id="Group_4517" data-name="Group 4517" transform="translate(312.88 399.226)">
      <g id="Group_4516" data-name="Group 4516" clip-path="url(#clip-path-4)">
        <path id="Path_5584" data-name="Path 5584" d="M3550.708,2169.547a7.8,7.8,0,0,0-.421,2.536h-2.646a10.445,10.445,0,0,1,.31-2.536Z" transform="translate(-3547.641 -2169.547)" fill="#578cca"/>
      </g>
    </g>
    <g id="Group_4520" data-name="Group 4520" transform="translate(330.813 399.226)">
      <g id="Group_4519" data-name="Group 4519" clip-path="url(#clip-path-5)">
        <path id="Path_5585" data-name="Path 5585" d="M3802.183,2172.084h-2.646a7.8,7.8,0,0,0-.421-2.536h2.757a10.445,10.445,0,0,1,.31,2.536" transform="translate(-3799.116 -2169.548)" fill="#578cca"/>
      </g>
    </g>
    <path id="Path_5586" data-name="Path 5586" d="M3017.242,1816.481h3.371a10.006,10.006,0,1,1,20.013,0H3044a13.378,13.378,0,1,0-26.755,0" transform="translate(-2742.182 -1430.007)" fill="#578cca"/>
    <g id="Group_4523" data-name="Group 4523" transform="translate(297.907 383.242)">
      <g id="Group_4522" data-name="Group 4522" clip-path="url(#clip-path-6)">
        <path id="Path_5587" data-name="Path 5587" d="M3337.663,1945.394a9.933,9.933,0,0,1,.536,3.231h3.371a13.309,13.309,0,0,0-.4-3.231Z" transform="translate(-3337.663 -1945.394)" fill="#578cca"/>
      </g>
    </g>
    <g id="Group_4526" data-name="Group 4526" transform="translate(275.06 383.242)">
      <g id="Group_4525" data-name="Group 4525" clip-path="url(#clip-path-6)">
        <path id="Path_5588" data-name="Path 5588" d="M3017.242,1948.626h3.371a9.932,9.932,0,0,1,.536-3.231h-3.512a13.31,13.31,0,0,0-.4,3.231" transform="translate(-3017.242 -1945.395)" fill="#578cca"/>
      </g>
    </g>
    <rect id="Rectangle_2719" data-name="Rectangle 2719" width="45.891" height="58.616" transform="translate(265.492 386.475)" fill="#578cca"/>
    <rect id="Rectangle_2720" data-name="Rectangle 2720" width="45.891" height="58.617" transform="translate(255.404 386.474)" fill="#87b1e0"/>
    <g id="Group_4529" data-name="Group 4529" transform="translate(301.295 439.87)">
      <g id="Group_4528" data-name="Group 4528" clip-path="url(#clip-path-8)">
        <path id="Path_5589" data-name="Path 5589" d="M3385.169,2744.767h10.088l-5.044-5.221Z" transform="translate(-3385.169 -2739.546)" fill="#578cca"/>
      </g>
    </g>
    <path id="Path_5590" data-name="Path 5590" d="M3199.476,2002.9v11.856h8.831V2002.9a.451.451,0,0,0-.132-.32l-3.963-3.965-.012-.01v-7.9h-.616v7.9l-.012.01-3.963,3.965a.452.452,0,0,0-.132.32m4.536-2.89a.616.616,0,1,1-.725.725.614.614,0,0,1,.725-.725" transform="translate(-2911.422 -1604.239)" fill="#fff"/>
    <path id="Path_5591" data-name="Path 5591" d="M3216.379,2197.437a1.656,1.656,0,0,0-1.479.91h0a1.635,1.635,0,0,0-.083.195c-.819,2.242,3.219,4.761,3.219,4.761v-4.209a1.657,1.657,0,0,0-1.657-1.657" transform="translate(-2925.566 -1796.223)" fill="#87b1e0"/>
    <path id="Path_5592" data-name="Path 5592" d="M3263.054,2197.437a1.657,1.657,0,0,1,1.479.91h0a1.675,1.675,0,0,1,.083.195c.82,2.242-3.219,4.761-3.219,4.761v-4.209a1.657,1.657,0,0,1,1.657-1.657" transform="translate(-2968.928 -1796.223)" fill="#578cca"/>
    <g id="Group_4532" data-name="Group 4532" transform="translate(301.295 386.474)">
      <g id="Group_4531" data-name="Group 4531" clip-path="url(#clip-path-9)">
        <rect id="Rectangle_2722" data-name="Rectangle 2722" width="5.044" height="58.617" fill="#578cca"/>
      </g>
    </g>
    <path id="Path_5593" data-name="Path 5593" d="M2875.771,1816.481h3.371a10.006,10.006,0,1,1,20.012,0h3.371a13.378,13.378,0,1,0-26.755,0" transform="translate(-2610.799 -1430.007)" fill="#87b1e0"/>
    <g id="Group_4535" data-name="Group 4535" transform="translate(287.82 383.242)">
      <g id="Group_4534" data-name="Group 4534" clip-path="url(#clip-path-6)">
        <path id="Path_5594" data-name="Path 5594" d="M3196.193,1945.394a9.939,9.939,0,0,1,.536,3.231h3.372a13.321,13.321,0,0,0-.4-3.231Z" transform="translate(-3196.193 -1945.394)" fill="#578cca"/>
      </g>
    </g>
    <g id="Group_4538" data-name="Group 4538" transform="translate(264.973 383.242)">
      <g id="Group_4537" data-name="Group 4537" clip-path="url(#clip-path-6)">
        <path id="Path_5595" data-name="Path 5595" d="M2875.771,1948.626h3.371a9.939,9.939,0,0,1,.536-3.231h-3.512a13.322,13.322,0,0,0-.4,3.231" transform="translate(-2875.771 -1945.395)" fill="#578cca"/>
      </g>
    </g>
    <g id="Group_4541" data-name="Group 4541" transform="translate(259.764 392.622)">
      <g id="Group_4540" data-name="Group 4540" clip-path="url(#clip-path-12)">
        <path id="Path_5596" data-name="Path 5596" d="M2844.26,2076.939s-.155,52.468-41.531,52.468h41.531Z" transform="translate(-2802.729 -2076.939)" fill="#578cca"/>
      </g>
    </g>
    <path id="Path_5597" data-name="Path 5597" d="M229.42,1953.394l3.242,1.773-3.242,1.773-1.773,3.242-1.773-3.242-3.242-1.773,3.242-1.773,1.773-3.242Z" transform="translate(-146.843 -1566.57)" fill="#b9d6f2"/>
    <path id="Path_5598" data-name="Path 5598" d="M135.36,2134.62l1.621.887-1.621.887-.887,1.621-.887-1.621-1.621-.887,1.621-.887.887-1.621Z" transform="translate(-62.642 -1736.379)" fill="#b9d6f2"/>
    <path id="Path_5599" data-name="Path 5599" d="M3598.338,729.538l3.481,1.9-3.481,1.9-1.9,3.481-1.9-3.481-3.481-1.9,3.481-1.9,1.9-3.481Z" transform="translate(-3275.073 -429.76)" fill="#b9d6f2"/>
    <path id="Path_5600" data-name="Path 5600" d="M334.62,2812.756H483.273a1.455,1.455,0,0,1,0,2.909h-148.6a1.46,1.46,0,0,1-1.064-2.484,1.42,1.42,0,0,1,1.013-.426" transform="translate(-249.515 -2367.666)" fill="#a2a2a2"/>
    <path id="Path_5601" data-name="Path 5601" d="M2685.484,2814.211a1.453,1.453,0,0,1-1.454,1.454H2576.372a1.455,1.455,0,1,1,0-2.909H2684.03a1.455,1.455,0,0,1,1.454,1.455" transform="translate(-2331.397 -2367.666)" fill="#a2a2a2"/>
    <path id="Path_5602" data-name="Path 5602" d="M15.59,2815.671H1.454a1.454,1.454,0,1,1,0-2.909H15.59a1.454,1.454,0,1,1,0,2.909" transform="translate(59.914 -2367.672)" fill="#a2a2a2"/>
    <path id="Path_5603" data-name="Path 5603" d="M963.313,543.343v-8.782a1.209,1.209,0,1,0-2.418,0v8.782a1.209,1.209,0,1,0,2.418,0" transform="translate(-832.464 -250.796)" fill="#578cca"/>
    <path id="Path_5604" data-name="Path 5604" d="M692.607,814.048a1.209,1.209,0,0,0-1.209-1.209h-8.782a1.209,1.209,0,0,0,0,2.418H691.4a1.209,1.209,0,0,0,1.209-1.209" transform="translate(-572.905 -510.354)" fill="#578cca"/>
    <path id="Path_5605" data-name="Path 5605" d="M771.718,622.454a1.2,1.2,0,0,0-.354-.855l-6.033-6.033a1.209,1.209,0,0,0-1.71,1.71l6.033,6.033a1.209,1.209,0,0,0,2.064-.855" transform="translate(-648.928 -326.818)" fill="#578cca"/>
    <rect id="Rectangle_2727" data-name="Rectangle 2727" width="294.173" height="203.474" transform="translate(59.914 244.525)" fill="none"/>
    <rect id="Rectangle_2728" data-name="Rectangle 2728" width="294.173" height="203.474" transform="translate(59.914 244.525)" fill="none"/>
  </g>
</svg>
