<svg xmlns="http://www.w3.org/2000/svg" width="26.11" height="26.11" viewBox="0 0 26.11 26.11">
  <g id="order" transform="translate(0 0)">
    <path id="Path_17176" data-name="Path 17176" d="M327.276,275.429h1.53v1.53h-1.53Z" transform="translate(-310.586 -261.383)" fill="#e5184e"/>
    <path id="Path_17177" data-name="Path 17177" d="M258.215,275.429h1.53v1.53h-1.53Z" transform="translate(-245.047 -261.383)" fill="#e5184e"/>
    <path id="Path_17178" data-name="Path 17178" d="M189.152,275.429h1.53v1.53h-1.53Z" transform="translate(-179.506 -261.383)" fill="#e5184e"/>
    <path id="Path_17179" data-name="Path 17179" d="M26.11,6.032A6.032,6.032,0,0,0,14.6,3.511H5.32L4.969,0H0V1.53H3.584l.22,2.2L5.2,17.7a2.52,2.52,0,0,0,.831,4.9H7.216a2.521,2.521,0,1,0,4.635,0h4.165a2.521,2.521,0,1,0,4.635,0h1.875v-1.53H6.032a.991.991,0,1,1,0-1.982H22.526l.8-7.972A6.033,6.033,0,0,0,26.11,6.032ZM9.533,24.58a.991.991,0,1,1,.991-.991A.992.992,0,0,1,9.533,24.58Zm8.8,0a.991.991,0,1,1,.991-.991A.992.992,0,0,1,18.333,24.58ZM20.078,1.53a4.5,4.5,0,1,1-4.5,4.5A4.507,4.507,0,0,1,20.078,1.53Zm1.063,16.027H6.724L5.473,5.041h8.655a6.034,6.034,0,0,0,7.586,6.8Z" transform="translate(0 0)" fill="#e5184e"/>
    <path id="Path_17180" data-name="Path 17180" d="M342.158,80.387l-1.082-1.082-2.353,2.353-1.339-1.339L336.3,81.4l2.421,2.421Z" transform="translate(-319.153 -75.26)" fill="#0e3f6c"/>
  </g>
</svg>
