<svg xmlns="http://www.w3.org/2000/svg" width="123.379" height="148.627" viewBox="0 0 123.379 148.627">
  <g id="Group_8498" data-name="Group 8498" transform="translate(-143.072 -180.064)">
    <g id="tick_2_" data-name="tick (2)" transform="translate(149.866 202.993)">
      <path id="Path_17338" data-name="Path 17338" d="M113.964,55.749a44.936,44.936,0,0,0-5.456-8.793,44.85,44.85,0,0,0,1.674-10.215,3.335,3.335,0,0,0-1.056-2.55,51.181,51.181,0,0,0-8.627-6.038,44.943,44.943,0,0,0-2.363-10.078,3.349,3.349,0,0,0-1.948-1.948A39.72,39.72,0,0,0,86.11,13.541a45.062,45.062,0,0,0-6.038-8.408,3.041,3.041,0,0,0-2.55-1.053A44.847,44.847,0,0,0,67.307,5.755,44.958,44.958,0,0,0,58.514.3a3.331,3.331,0,0,0-2.759,0,44.935,44.935,0,0,0-8.793,5.456A44.85,44.85,0,0,0,36.747,4.081,2.989,2.989,0,0,0,34.2,5.134a45.053,45.053,0,0,0-6.038,8.408,39.72,39.72,0,0,0-10.078,2.587,3.349,3.349,0,0,0-1.948,1.948,39.72,39.72,0,0,0-2.587,10.078,45.062,45.062,0,0,0-8.408,6.038,3.353,3.353,0,0,0-1.053,2.55A44.847,44.847,0,0,0,5.76,46.956,44.942,44.942,0,0,0,.3,55.749a3.356,3.356,0,0,0,0,2.759A44.935,44.935,0,0,0,5.76,67.3,44.85,44.85,0,0,0,4.087,77.516a3.353,3.353,0,0,0,1.053,2.55A45.053,45.053,0,0,0,13.547,86.1a39.72,39.72,0,0,0,2.587,10.078,3.345,3.345,0,0,0,1.951,1.948,44.888,44.888,0,0,0,10.074,2.363A51.155,51.155,0,0,0,34.2,109.12a3.159,3.159,0,0,0,2.55,1.056A44.807,44.807,0,0,0,46.958,108.5a45.2,45.2,0,0,0,8.8,5.456,3.348,3.348,0,0,0,2.759,0,45.123,45.123,0,0,0,8.793-5.456,44.85,44.85,0,0,0,10.215,1.674,3.151,3.151,0,0,0,2.55-1.056,44.941,44.941,0,0,0,6.038-8.4,39.672,39.672,0,0,0,10.074-2.587,3.345,3.345,0,0,0,1.951-1.948A39.72,39.72,0,0,0,100.722,86.1a44.921,44.921,0,0,0,8.4-6.038,3.334,3.334,0,0,0,1.056-2.55A44.847,44.847,0,0,0,108.508,67.3a44.943,44.943,0,0,0,5.456-8.793A3.356,3.356,0,0,0,113.964,55.749Z" fill="#f3f5f9"/>
      <path id="Path_17339" data-name="Path 17339" d="M257.383,113.958a45.123,45.123,0,0,0,8.793-5.456,44.85,44.85,0,0,0,10.215,1.674,3.151,3.151,0,0,0,2.55-1.056,44.94,44.94,0,0,0,6.038-8.4,39.672,39.672,0,0,0,10.074-2.587A3.345,3.345,0,0,0,297,96.182,39.72,39.72,0,0,0,299.591,86.1a44.921,44.921,0,0,0,8.4-6.038,3.334,3.334,0,0,0,1.056-2.55A44.847,44.847,0,0,0,307.378,67.3a44.941,44.941,0,0,0,5.456-8.793,3.356,3.356,0,0,0,0-2.759,44.934,44.934,0,0,0-5.456-8.793,44.85,44.85,0,0,0,1.674-10.215A3.335,3.335,0,0,0,308,34.192a51.181,51.181,0,0,0-8.627-6.038A44.944,44.944,0,0,0,297,18.076a3.349,3.349,0,0,0-1.948-1.948,39.72,39.72,0,0,0-10.078-2.587,45.062,45.062,0,0,0-6.038-8.408,3.041,3.041,0,0,0-2.55-1.053,44.847,44.847,0,0,0-10.215,1.674A44.942,44.942,0,0,0,257.383.3,3.33,3.33,0,0,0,256,0V114.256a3.333,3.333,0,0,0,1.379-.3Z" transform="translate(-198.87 0)" fill="#e1e6f0"/>
      <path id="Path_17340" data-name="Path 17340" d="M126.955,88.932a34.215,34.215,0,0,0,4.887-7.126,34.231,34.231,0,0,0-4.887-7.126,3.353,3.353,0,0,1-.693-3.478,34.207,34.207,0,0,0,1.788-8.46,36.529,36.529,0,0,0-7.467-4.714,3.354,3.354,0,0,1-1.971-2.952,33.931,33.931,0,0,0-1.582-8.5,34.2,34.2,0,0,0-8.5-1.585,3.36,3.36,0,0,1-2.952-1.971,36.442,36.442,0,0,0-4.714-7.467,34.206,34.206,0,0,0-8.46,1.788,3.334,3.334,0,0,1-3.478-.693A34.216,34.216,0,0,0,81.8,31.766a34.231,34.231,0,0,0-7.126,4.887,3.36,3.36,0,0,1-3.478.693,34.206,34.206,0,0,0-8.46-1.788,36.441,36.441,0,0,0-4.714,7.467A3.36,3.36,0,0,1,55.073,45a33.932,33.932,0,0,0-8.5,1.582,34.2,34.2,0,0,0-1.585,8.5,3.36,3.36,0,0,1-1.971,2.952,36.441,36.441,0,0,0-7.467,4.714,34.206,34.206,0,0,0,1.788,8.46,3.354,3.354,0,0,1-.693,3.478,34.216,34.216,0,0,0-4.887,7.126,34.23,34.23,0,0,0,4.887,7.126,3.353,3.353,0,0,1,.693,3.478,34.206,34.206,0,0,0-1.788,8.46,36.441,36.441,0,0,0,7.467,4.714,3.36,3.36,0,0,1,1.971,2.952,33.932,33.932,0,0,0,1.582,8.5,34.332,34.332,0,0,0,8.5,1.589,3.351,3.351,0,0,1,2.949,1.968,36.529,36.529,0,0,0,4.714,7.467,34.188,34.188,0,0,0,8.457-1.788,3.352,3.352,0,0,1,3.475.69,34.487,34.487,0,0,0,7.133,4.89,34.356,34.356,0,0,0,7.129-4.887,3.35,3.35,0,0,1,3.475-.693,34.206,34.206,0,0,0,8.46,1.788,36.528,36.528,0,0,0,4.714-7.467,3.35,3.35,0,0,1,2.949-1.968,34.333,34.333,0,0,0,8.5-1.589,34.166,34.166,0,0,0,1.585-8.5,3.355,3.355,0,0,1,1.971-2.952,36.529,36.529,0,0,0,7.467-4.714,34.206,34.206,0,0,0-1.788-8.46,3.354,3.354,0,0,1,.693-3.479Z" transform="translate(-24.668 -24.677)" fill="#7becee"/>
      <path id="Path_17341" data-name="Path 17341" d="M266.607,126.267a34.206,34.206,0,0,0,8.46,1.788,36.53,36.53,0,0,0,4.714-7.467,3.35,3.35,0,0,1,2.949-1.968,34.332,34.332,0,0,0,8.5-1.589,34.165,34.165,0,0,0,1.585-8.5,3.355,3.355,0,0,1,1.971-2.952,36.529,36.529,0,0,0,7.467-4.714,34.207,34.207,0,0,0-1.788-8.46,3.354,3.354,0,0,1,.693-3.478,34.217,34.217,0,0,0,4.887-7.126,34.231,34.231,0,0,0-4.887-7.126,3.353,3.353,0,0,1-.693-3.478,34.207,34.207,0,0,0,1.788-8.46,36.528,36.528,0,0,0-7.467-4.714,3.354,3.354,0,0,1-1.971-2.952,33.932,33.932,0,0,0-1.582-8.5,34.2,34.2,0,0,0-8.5-1.585,3.36,3.36,0,0,1-2.952-1.971,36.441,36.441,0,0,0-4.714-7.467,34.207,34.207,0,0,0-8.46,1.788,3.334,3.334,0,0,1-3.478-.693A34.216,34.216,0,0,0,256,31.767v100.08a34.356,34.356,0,0,0,7.129-4.887,3.351,3.351,0,0,1,3.475-.693Z" transform="translate(-198.868 -24.678)" fill="#47cacc"/>
      <path id="Path_17342" data-name="Path 17342" d="M187.987,160.385l-9.47-9.467a3.346,3.346,0,0,0-4.733,0l-11.833,11.835-6.695,6.7-5.142-5.142a3.346,3.346,0,0,0-4.733,0l-9.467,9.467a3.346,3.346,0,0,0,0,4.733l16.975,16.975a3.346,3.346,0,0,0,4.733,0l4.328-4.328,26.036-26.036a3.345,3.345,0,0,0,0-4.733Z" transform="translate(-104.817 -116.479)" fill="#f3f5f9"/>
      <path id="Path_17343" data-name="Path 17343" d="M283.02,162.752a3.344,3.344,0,0,0-.981-2.367l-9.47-9.467a3.346,3.346,0,0,0-4.733,0L256,162.754v28.4l26.036-26.036A3.344,3.344,0,0,0,283.02,162.752Z" transform="translate(-198.869 -116.479)" fill="#e1e6f0"/>
    </g>
    <g id="Group_8497" data-name="Group 8497" transform="translate(4901.391 -11707.936)">
      <path id="Path_17344" data-name="Path 17344" d="M102.152,88.717a1.988,1.988,0,0,1-1.988-1.988V84.074a1.988,1.988,0,1,1,3.976,0V86.73A1.988,1.988,0,0,1,102.152,88.717Zm0,0" transform="translate(-4851.18 11816.527)" fill="#ffe733"/>
      <path id="Path_17345" data-name="Path 17345" d="M102.152,172.9a1.988,1.988,0,0,1-1.988-1.988v-2.656a1.988,1.988,0,0,1,3.976,0v2.656A1.988,1.988,0,0,1,102.152,172.9Zm0,0" transform="translate(-4851.18 11743.231)" fill="#ffe733"/>
      <path id="Path_17346" data-name="Path 17346" d="M48.323,138.424H45.668a1.988,1.988,0,1,1,0-3.975h2.656a1.988,1.988,0,1,1,0,3.975Zm0,0" transform="translate(-4801.999 11770.935)" fill="#ffe733"/>
      <path id="Path_17347" data-name="Path 17347" d="M140.75,138.424h-2.656a1.988,1.988,0,1,1,0-3.975h2.656a1.988,1.988,0,1,1,0,3.975Zm0,0" transform="translate(-4882.475 11770.935)" fill="#ffe733"/>
      <g id="Group_8496" data-name="Group 8496" transform="translate(-4736.041 11888)">
        <path id="Path_17348" data-name="Path 17348" d="M274.457,6.632a1.988,1.988,0,0,1-1.988-1.988V1.988a1.988,1.988,0,0,1,3.976,0V4.644A1.988,1.988,0,0,1,274.457,6.632Zm0,0" transform="translate(-265.166)" fill="#ffbc36"/>
        <path id="Path_17349" data-name="Path 17349" d="M274.457,90.811a1.988,1.988,0,0,1-1.988-1.988V86.168a1.988,1.988,0,0,1,3.976,0v2.656A1.988,1.988,0,0,1,274.457,90.811Zm0,0" transform="translate(-265.166 -73.296)" fill="#ffbc36"/>
        <path id="Path_17350" data-name="Path 17350" d="M220.628,56.335h-2.656a1.988,1.988,0,1,1,0-3.976h2.656a1.988,1.988,0,1,1,0,3.976Zm0,0" transform="translate(-215.984 -45.589)" fill="#ffbc36"/>
        <path id="Path_17351" data-name="Path 17351" d="M313.054,56.335H310.4a1.988,1.988,0,1,1,0-3.976h2.656a1.988,1.988,0,1,1,0,3.976Zm0,0" transform="translate(-296.459 -45.589)" fill="#ffbc36"/>
        <path id="Path_17352" data-name="Path 17352" d="M402.207,316.854a1.988,1.988,0,0,1-1.988-1.988v-2.656a1.988,1.988,0,0,1,3.976,0v2.656A1.988,1.988,0,0,1,402.207,316.854Zm0,0" transform="translate(-310.398 -179.112)" fill="#ffbc36"/>
        <path id="Path_17353" data-name="Path 17353" d="M402.207,401.033a1.988,1.988,0,0,1-1.988-1.988V396.39a1.988,1.988,0,0,1,3.976,0v2.656A1.988,1.988,0,0,1,402.207,401.033Zm0,0" transform="translate(-310.398 -252.407)" fill="#ffbc36"/>
        <path id="Path_17354" data-name="Path 17354" d="M348.381,366.558h-2.656a1.988,1.988,0,0,1,0-3.976h2.656a1.988,1.988,0,1,1,0,3.976Zm0,0" transform="translate(-261.22 -224.701)" fill="#ffbc36"/>
        <path id="Path_17355" data-name="Path 17355" d="M440.807,366.558h-2.655a1.988,1.988,0,1,1,0-3.976h2.655a1.988,1.988,0,0,1,0,3.976Zm0,0" transform="translate(-341.695 -224.701)" fill="#ffbc36"/>
      </g>
    </g>
  </g>
</svg>
