<svg id="prescription" xmlns="http://www.w3.org/2000/svg" width="41.193" height="41.193" viewBox="0 0 41.193 41.193">
  <path id="Path_17383" data-name="Path 17383" d="M162.991,51.733h-2.116V47.5h2.116a2.116,2.116,0,0,1,2.116,2.116h0A2.116,2.116,0,0,1,162.991,51.733Z" transform="translate(-147.932 -43.678)" fill="#ff5023"/>
  <path id="Path_17384" data-name="Path 17384" d="M27.634,360.26a4.561,4.561,0,0,0,4.561,4.561H12.061A4.561,4.561,0,0,1,7.5,360.26V352.6H27.634Z" transform="translate(-6.897 -324.23)" fill="#57a4ff"/>
  <path id="Path_17385" data-name="Path 17385" d="M11.537,360.26V352.6H7.5v7.661a4.561,4.561,0,0,0,4.561,4.561H16.1A4.561,4.561,0,0,1,11.537,360.26Z" transform="translate(-6.897 -324.23)" fill="#006df0"/>
  <path id="Path_17386" data-name="Path 17386" d="M358.368,438.76h-3.249a2.876,2.876,0,0,1-2.876-2.876h0a2.876,2.876,0,0,1,2.876-2.876h3.249Z" transform="translate(-323.903 -398.17)" fill="#ff5023"/>
  <path id="Path_17387" data-name="Path 17387" d="M354.329,435.884h0a2.876,2.876,0,0,1,2.876-2.876h-2.086a2.876,2.876,0,0,0-2.876,2.876h0a2.876,2.876,0,0,0,2.876,2.876H357.2A2.876,2.876,0,0,1,354.329,435.884Z" transform="translate(-323.903 -398.17)" fill="#c70024"/>
  <path id="Path_17388" data-name="Path 17388" d="M428.371,433.007h3.249a2.876,2.876,0,0,1,2.876,2.876h0a2.876,2.876,0,0,1-2.876,2.876h-3.249Z" transform="translate(-393.906 -398.169)" fill="#57a4ff"/>
  <rect id="Rectangle_2906" data-name="Rectangle 2906" width="1.956" height="5.752" transform="translate(34.465 34.838)" fill="#006df0"/>
  <circle id="Ellipse_530" data-name="Ellipse 530" cx="5.194" cy="5.194" r="5.194" transform="translate(29.864 24.45)" fill="#ffe477"/>
  <path id="Path_17389" data-name="Path 17389" d="M373.5,309.081a5.2,5.2,0,0,1,4.041-5.064,5.194,5.194,0,1,0,0,10.128A5.2,5.2,0,0,1,373.5,309.081Z" transform="translate(-341.327 -279.438)" fill="#ffb655"/>
  <path id="Path_17390" data-name="Path 17390" d="M380.247,19.721h-9.122V12.061A4.561,4.561,0,0,1,375.686,7.5h0a4.561,4.561,0,0,1,4.561,4.561v7.661Z" transform="translate(-341.266 -6.897)" fill="#57a4ff"/>
  <path id="Path_17391" data-name="Path 17391" d="M377.023,7.7a4.56,4.56,0,0,0-1.337-.2h0a4.561,4.561,0,0,0-4.561,4.561v7.661H373.8V12.061A4.562,4.562,0,0,1,377.023,7.7Z" transform="translate(-341.266 -6.897)" fill="#006df0"/>
  <path id="Path_17392" data-name="Path 17392" d="M139.49,44.611h0a2.875,2.875,0,0,1,1.519-2.536V12.061A4.561,4.561,0,0,1,145.57,7.5H125.436a4.561,4.561,0,0,0-4.561,4.561v23.2h11.012v7.661a4.561,4.561,0,0,0,4.561,4.561h0a4.549,4.549,0,0,0,3.388-1.507A2.863,2.863,0,0,1,139.49,44.611Z" transform="translate(-111.15 -6.897)" fill="#b3d8f4"/>
  <g id="Group_8525" data-name="Group 8525" transform="translate(9.725 0.603)">
    <path id="Path_17393" data-name="Path 17393" d="M129.61,7.5h-4.174a4.561,4.561,0,0,0-4.561,4.561v23.2h4.174v-23.2A4.561,4.561,0,0,1,129.61,7.5Z" transform="translate(-120.875 -7.5)" fill="#57a4ff"/>
    <path id="Path_17394" data-name="Path 17394" d="M261.924,360.26V352.6H257.75v7.661a4.561,4.561,0,0,0,4.561,4.561h0a4.539,4.539,0,0,0,2.088-.505A4.559,4.559,0,0,1,261.924,360.26Z" transform="translate(-246.738 -324.834)" fill="#57a4ff"/>
  </g>
  <g id="Group_8526" data-name="Group 8526" transform="translate(2.253 2.212)">
    <path id="Path_17395" data-name="Path 17395" d="M392.965,127.707h-1.207V126.5h1.207Zm-2.011,0h-1.207V126.5h1.207Zm-2.011,0h-1.207V126.5h1.207Z" transform="translate(-358.792 -118.534)" fill="#fff"/>
    <path id="Path_17396" data-name="Path 17396" d="M38.415,378.207H32.023V377h6.393Zm-7.2,0H30.011V377h1.207Zm-2.011,0H28V377h1.207Z" transform="translate(-28 -348.88)" fill="#fff"/>
    <path id="Path_17397" data-name="Path 17397" d="M236.066,28.7h-5.771V27.493h5.771Zm-6.575,0h-1.207V27.493h1.207Zm-2.011,0h-1.207V27.493h1.207Z" transform="translate(-210.32 -27.493)" fill="#fff"/>
    <rect id="Rectangle_2907" data-name="Rectangle 2907" width="2.521" height="1.207" transform="translate(28.542 33.631)" fill="#fff"/>
    <path id="Path_17398" data-name="Path 17398" d="M439.666,322.481l-1.142-.39a2.929,2.929,0,0,0,.157-.949v-.035l1.207-.014v.049A4.13,4.13,0,0,1,439.666,322.481Zm-1.068-2.035a2.906,2.906,0,0,0-.4-.912l1.009-.663a4.112,4.112,0,0,1,.561,1.29Zm-.823-1.424a2.919,2.919,0,0,0-2.026-.812V317a4.12,4.12,0,0,1,2.86,1.147Z" transform="translate(-402.943 -293.71)" fill="#fff"/>
  </g>
  <g id="Group_8527" data-name="Group 8527">
    <path id="Path_17399" data-name="Path 17399" d="M158.814,42.72a2.723,2.723,0,0,0-2.72-2.72h-2.72v8.753h1.207V45.439h1.263l2.526,2.526-2.491,2.491.853.853,2.491-2.491,2.7,2.7.853-.853-2.7-2.7,2.49-2.49-.853-.853-2.49,2.49-1.944-1.944A2.723,2.723,0,0,0,158.814,42.72Zm-2.72,1.513h-1.513V41.207h1.513a1.513,1.513,0,0,1,0,3.026Z" transform="translate(-141.035 -36.782)" fill="#1d1d1f"/>
    <rect id="Rectangle_2908" data-name="Rectangle 2908" width="14.572" height="1.207" transform="translate(12.138 18.223)" fill="#1d1d1f"/>
    <rect id="Rectangle_2909" data-name="Rectangle 2909" width="14.572" height="1.207" transform="translate(12.138 22.994)" fill="#1d1d1f"/>
    <rect id="Rectangle_2910" data-name="Rectangle 2910" width="4.365" height="1.207" transform="translate(22.347 27.765)" fill="#1d1d1f"/>
    <rect id="Rectangle_2911" data-name="Rectangle 2911" width="4.365" height="1.207" transform="translate(22.347 32.536)" fill="#1d1d1f"/>
    <path id="Path_17400" data-name="Path 17400" d="M355.484,306.862a5.8,5.8,0,1,0-6.956-.086h-.308a3.479,3.479,0,1,0,0,6.959h6.5a3.479,3.479,0,0,0,.766-6.873Zm-8.012-4.677a4.591,4.591,0,1,1,4.591,4.591A4.6,4.6,0,0,1,347.472,302.186Zm3.394,10.343h-2.646a2.273,2.273,0,0,1,0-4.545h2.646Zm3.852,0h-2.646v-4.545h2.646a2.273,2.273,0,0,1,0,4.545Z" transform="translate(-317.005 -272.542)" fill="#1d1d1f"/>
    <path id="Path_17401" data-name="Path 17401" d="M393.739,388V386.79a2.925,2.925,0,0,1-2.6-1.584l-1.071.556A4.128,4.128,0,0,0,393.739,388Z" transform="translate(-358.68 -354.214)" fill="#1d1d1f"/>
    <rect id="Rectangle_2912" data-name="Rectangle 2912" width="6.866" height="1.207" transform="translate(37.059 32.498) rotate(-135)" fill="#1d1d1f"/>
    <path id="Path_17402" data-name="Path 17402" d="M114.582,5.164a3.962,3.962,0,0,1,3.957-3.957h16.82a5.155,5.155,0,0,0-1.85,3.957v20.1h1.207V5.164a3.958,3.958,0,0,1,7.869-.6h-4.843V5.768h4.889v6.454h-6.909v1.207h8.116V5.164A5.17,5.17,0,0,0,138.673,0H118.539a5.17,5.17,0,0,0-5.164,5.164v21.6h1.207V5.164Z" transform="translate(-104.253)" fill="#1d1d1f"/>
    <path id="Path_17403" data-name="Path 17403" d="M27.126,356.874a3.909,3.909,0,0,1-1.827.447,3.962,3.962,0,0,1-3.957-3.957V345.1H0v8.264a5.17,5.17,0,0,0,5.164,5.164H25.3a5.176,5.176,0,0,0,2.381-.583Zm-21.961.447a3.962,3.962,0,0,1-3.957-3.957v-7.057H20.134v6.454H14.467v1.207h5.7a5.159,5.159,0,0,0,1.815,3.354Z" transform="translate(0 -317.334)" fill="#1d1d1f"/>
  </g>
</svg>
