<svg xmlns="http://www.w3.org/2000/svg" width="26.534" height="26.11" viewBox="0 0 26.534 26.11">
  <g id="wallet_1_" data-name="wallet (1)" transform="translate(-0.5 -0.5)">
    <path id="Path_17918" data-name="Path 17918" d="M25.265,12.624V9.8a2.656,2.656,0,0,0-2.653-2.653h-.884V3.578a2.651,2.651,0,0,0-3.636-2.466l-4.1,1.64A7.945,7.945,0,0,0,.5,8.46a7.758,7.758,0,0,0,.084.831A1.992,1.992,0,0,0,.5,9.8V23.956A2.656,2.656,0,0,0,3.153,26.61H22.612a2.656,2.656,0,0,0,2.653-2.653V21.144a2.649,2.649,0,0,0,1.769-2.49V15.115A2.649,2.649,0,0,0,25.265,12.624Zm-6.522-9.87a.884.884,0,0,1,1.215.824V7.151h-3.67a7.887,7.887,0,0,0-1.134-2.963ZM8.46,2.269A6.191,6.191,0,1,1,2.269,8.46,6.191,6.191,0,0,1,8.46,2.269ZM22.612,24.841H3.153a.886.886,0,0,1-.884-.884l.01-10.542A7.9,7.9,0,0,0,16.374,8.92h6.238A.886.886,0,0,1,23.5,9.8v2.656H20.843a2.656,2.656,0,0,0-2.653,2.653v3.538a2.656,2.656,0,0,0,2.653,2.653H23.5v2.65A.886.886,0,0,1,22.612,24.841Zm2.653-6.188a.884.884,0,0,1-.876.883l-.008,0-.018,0h-3.52a.886.886,0,0,1-.884-.884V15.115a.886.886,0,0,1,.884-.884H24.38a.886.886,0,0,1,.884.884Z" transform="translate(0 0)" fill="#e5184e"/>
    <path id="Path_17919" data-name="Path 17919" d="M3.87,7.352H5.611V9.093a.87.87,0,1,0,1.741,0V7.352H9.093a.87.87,0,1,0,0-1.741H7.352V3.87a.87.87,0,0,0-1.741,0V5.611H3.87a.87.87,0,0,0,0,1.741Z" transform="translate(1.948 1.949)" fill="#0e3f6c"/>
  </g>
</svg>
