<svg id="shopping-cart_2_" data-name="shopping-cart (2)" xmlns="http://www.w3.org/2000/svg" width="23.058" height="20.266" viewBox="0 0 23.058 20.266">
  <path id="Path_5609" data-name="Path 5609" d="M7.429,13.511H19.68a.676.676,0,0,0,.649-.49l2.7-9.457a.675.675,0,0,0-.649-.861H5.871L5.388.529A.676.676,0,0,0,4.728,0H.675a.676.676,0,0,0,0,1.351H4.187L6.626,12.327a2.026,2.026,0,0,0,.8,3.886H19.68a.676.676,0,0,0,0-1.351H7.43a.675.675,0,0,1,0-1.351ZM21.486,4.053,19.17,12.16H7.972l-1.8-8.106Zm0,0" transform="translate(0 0)" fill="#a2a2a2"/>
  <path id="Path_5610" data-name="Path 5610" d="M150,362.027A2.027,2.027,0,1,0,152.027,360,2.029,2.029,0,0,0,150,362.027Zm2.027-.675a.676.676,0,1,1-.676.675A.676.676,0,0,1,152.027,361.351Zm0,0" transform="translate(-143.245 -343.787)" fill="#a2a2a2"/>
  <path id="Path_5611" data-name="Path 5611" d="M362,362.027A2.027,2.027,0,1,0,364.027,360,2.029,2.029,0,0,0,362,362.027Zm2.027-.675a.676.676,0,1,1-.676.675A.676.676,0,0,1,364.027,361.351Zm0,0" transform="translate(-345.698 -343.787)" fill="#a2a2a2"/>
</svg>
