<svg id="user" xmlns="http://www.w3.org/2000/svg" width="23.295" height="23.295" viewBox="0 0 23.295 23.295">
  <g id="Group_3534" data-name="Group 3534" transform="translate(0 0)">
    <path id="Path_4610" data-name="Path 4610" d="M19.884,3.412A11.648,11.648,0,0,0,3.412,19.884,11.648,11.648,0,0,0,19.884,3.412ZM11.648,21.93a10.259,10.259,0,0,1-7.664-3.436,8.192,8.192,0,0,1,7.664-5.3A4.095,4.095,0,1,1,15.743,9.1a4.095,4.095,0,0,1-4.095,4.095,8.192,8.192,0,0,1,7.664,5.3A10.259,10.259,0,0,1,11.648,21.93Z" transform="translate(0 0)" fill="#0e3f6c"/>
  </g>
</svg>
